<?xml version="1.0" encoding="utf-8"?>
<!-- Generator: Adobe Illustrator 20.1.0, SVG Export Plug-In . SVG Version: 6.00 Build 0)  -->
<svg version="1.1" id="Layer_1" xmlns="http://www.w3.org/2000/svg" xmlns:xlink="http://www.w3.org/1999/xlink" x="0px" y="0px"
	 viewBox="0 0 455 220" style="enable-background:new 0 0 455 220;" xml:space="preserve">
<style type="text/css">
	.st0{fill:#22A44A;}
	.st1{fill:#62AFE0;}
	.st2{fill:#97212A;}
	.st3{fill:#FFFFFF;}
	.st4{fill:#E9F4F2;}
	.st5{fill:#2074AC;}
	.st6{opacity:0.1;fill:#FFF69C;enable-background:new    ;}
	.st7{opacity:0.3;fill:#FFF69C;enable-background:new    ;}
	.st8{fill:#FFF69C;}
	.st9{fill:#AADFF8;}
</style>
<g>
	<g>
		<path class="st0" d="M59.6,133.5c-9.5-3.9,7.7-13.4,7.7-13.4s0-2,0-7.7c0-5.7,13.4-13.4,13.4-13.4s-13.5,2-11.5-5.7
			C73,85.6,94,79.9,94,79.9s-22.9,5.7-13.4-7.7c9.7-13.4,34.5-7.7,34.5-7.7s-44-17.2-15.3-17.2c28.7,1.8,65,24.8,65,24.8
			S67.3,135.2,59.6,133.5z"/>
		<path class="st0" d="M65.2,139.1c-7.7,2,5.7,11.5,5.7,11.5s0,2,0,7.7s11.5,13.4,11.5,13.4s-11.5-3.9-9.5,3.8
			c0,7.7,19.2,13.4,19.2,13.4s-19.2-7.7-11.5,5.7c7.7,11.5,28.7,9.5,28.7,9.5s-38.2,11.4-13.4,13.4c26.8,1.9,59.3-15.3,59.3-15.3
			S76.8,137.1,65.2,139.1z"/>
		<path class="st1" d="M26.7,106.7c0,0-15.3-3.9-24.8,30.6c-9.5,30.6,19.2,47.8,19.2,47.8s3.9-11.5,19.2-23s11.5-15.4,23-7.7
			c9.6,7.7,49.7,46,80.3,51.7c30.7,5.7,63.2-11.5,63.2-15.3c0-5.7-47.7-17.2-49.7-21c-3.9-3.8,22.9-57.5,30.6-67
			c7.7-7.7,13.3-13.4-11.5-28.7c-24.9-15.3-53.5-7.7-72.7,5.7c-19.1,15.3-36.3,47.8-47.8,53.5s-17.2-3.8-17.2-3.8L26.7,106.7z"/>
		<circle class="st2" cx="159" cy="98.8" r="11.5"/>
		<circle class="st3" cx="159" cy="98.8" r="7.7"/>
		<path class="st4" d="M180,142.8c0,0,0,7.7,2,7.7c1.8,0,3.8-15.3,3.8-15.3s3.7,22.8,5.7,17.2s0-24.8,0-24.8c5.7,7.7,7.7,23,7.7,23
			c3.8-9.5,0-32.5,0-32.5c5.7,3.8,7.7,24.8,7.7,24.8c5.7-9.6,0-30.6,0-30.6c5.7,3.8,9.5,23,9.5,23c3.8-13.5-5.7-34.5-5.7-34.5
			C201.1,100.8,180,142.8,180,142.8z"/>
		<path class="st4" d="M174.3,177.2c0,0-4-7.7-2-7.7c2-1.8,7.7,7.7,7.7,7.7s-7.6-17.3-3.8-15.3c3.8,3.8,11.5,17.2,11.5,17.2
			c0-9.5-5.7-21-5.7-21c7.6,3.8,15.3,24.8,15.3,24.8c1.8-7.6-7.7-24.8-7.7-24.8c7.6,2,15.3,23,15.3,23c2-7.6-5.7-26.8-5.7-26.8
			c13.4,5.7,17.2,32.5,17.2,32.5C208.7,190.7,174.3,177.2,174.3,177.2z"/>
		<path class="st5" d="M163,181.3c7.6,1.9,42,19.2,53.5,17.2c11.5-3.9,5.7-15.4-3.8-19.2c-11.5-3.8-47.7-7.7-49.7-11.5
			c-2-3.9,44-63.1,49.7-68.9s0-13.5-7.7-15.3c-7.7-1.9-11.5,0-23,21c-23,38.7-26.8,68.9-26.8,68.9
			C153.3,181.2,155.2,177.3,163,181.3z"/>
		<path class="st5" d="M191.5,91.2c0,0-21-57.4,0-68.9s40.2,3.8,40.2,3.8l-3.8,3.8c0,0-28.7-7.6-34.5,7.7c-3.7,15.4,2,51.7,2,51.7
			L191.5,91.2z"/>
		<path class="st5" d="M124.5,160.2v-44c25,3.8,23,24.8,23,24.8C145.7,160,122.7,160,124.5,160.2z"/>
		<circle class="st6" cx="239.4" cy="33.8" r="30.6"/>
		<circle class="st7" cx="239.4" cy="33.8" r="21"/>
		<circle class="st8" cx="239.4" cy="33.8" r="13.4"/>
	</g>
	<circle class="st9" cx="111.2" cy="133.3" r="5.7"/>
	<circle class="st9" cx="97.8" cy="146.7" r="5.7"/>
	<circle class="st9" cx="90.2" cy="129.5" r="3.8"/>
	<circle class="st9" cx="113.1" cy="150.5" r="3.8"/>
	<circle class="st9" cx="161" cy="119.9" r="3.8"/>
	<circle class="st9" cx="128.5" cy="108.5" r="3.8"/>
	<circle class="st9" cx="141.8" cy="169.7" r="3.8"/>
	<circle class="st9" cx="71" cy="144.8" r="3.8"/>
	<circle class="st9" cx="122.7" cy="179.2" r="3.8"/>
</g>
</svg>
