<?xml version="1.0" encoding="utf-8"?>
<!-- Generator: Adobe Illustrator 20.1.0, SVG Export Plug-In . SVG Version: 6.00 Build 0)  -->
<svg version="1.1" id="Layer_1" xmlns="http://www.w3.org/2000/svg" xmlns:xlink="http://www.w3.org/1999/xlink" x="0px" y="0px"
	 viewBox="0 0 671 220" style="enable-background:new 0 0 671 220;" xml:space="preserve">
<style type="text/css">
	.st0{fill:#C0D8C5;}
	.st1{fill:#C9E2CE;}
	.st2{fill:#D4F1DE;}
	.st3{fill:#2E3F4A;}
	.st4{fill:#AAD8B9;}
</style>
<g>
	<g>
		<g>
			<g>
				<path class="st0" d="M124.9,2.1c0.8-1.4-2.1-3.6-6.5-0.7c-3.6,2.9-13,5.1-17.4,5.8c-5.1,0.7-19.6-3.6-30.5,0
					c-7.3,2.2-8,19.6-8,19.6v31.3C89.4,50.8,116.3,35.6,124.9,2.1z"/>
			</g>
		</g>
		<g>
			<g>
				<path class="st1" d="M0.2,4.3c-0.8-2.2,2.1-4.4,6.5-1.5c3.6,2.9,13,4.4,17.4,5.1c5.8,1.5,20.3-3.6,31.2-0.7
					c7.3,2.2,8,19.6,8,19.6v31.3C36.4,51.5,9.5,37.7,0.2,4.3z"/>
			</g>
		</g>
	</g>
	<g>
		<path class="st1" d="M654.4,181.5c-10.2,6.5-22.5,13.1-47.2,16.7c-21.8,3.7-67.5-2.9-90-0.7c-32.7,3.6-96.6,21.8-130,22.5
			c-47.2,0.7-156.8-9.4-200.4-28.3C94.6,152.5,56.8,89.3,51,37.8c-1.5-10.9,17.4-11.6,20.3,0.7c0,0,6.5,44.3,76.2,49.4
			c61,4.3,118.4-62.4,236.7-63.9c34.8-0.7,92.2,18.9,123.4,25.4c40.6,8.7,127.7-3.6,154.6,58.8c7.9,17.4-5.9,31.9-4.4,39.2
			c0.8,2.9,11.6,0,13.1,8c0.7,8-5.1,10.9-8.7,11.6c-2.9,0-9.4,0.7-9.4,0.7s7.2-0.7,8.7,2.9C662.2,172,660,177.9,654.4,181.5z"/>
	</g>
	<g>
		<path class="st2" d="M417.5,137.9c-23.9-2.9-37,29.1-42.8,35.6c-10.1,10.9-34.8,12.3-12.3,19.6c78.4,25.4,94.4-29.8,94.4-29.8
			S441.5,140.8,417.5,137.9z"/>
	</g>
	<g>
		<g>
			<circle class="st3" cx="572.2" cy="142.3" r="6.5"/>
		</g>
	</g>
	<path class="st4" d="M582.4,150.1c-0.7,0-0.7,1.5,0,2.2c13.8,15.3,43.6,18.2,61,18.2c8,0,13.8-0.7,14.5-0.7c0.8,0,1.5,0,1.5-0.7
		c-2.9-0.7-6.5-0.7-6.5-0.7s3.6-0.7,6.5-0.7c0-0.8-0.8-1.5-1.5-1.5c-0.7,0-53,5.1-72.6-16.7C584.5,148.8,583.8,148.8,582.4,150.1z"
		/>
</g>
</svg>
