<?xml version="1.0" encoding="utf-8"?>
<!-- Generator: Adobe Illustrator 20.1.0, SVG Export Plug-In . SVG Version: 6.00 Build 0)  -->
<svg version="1.1" id="Layer_1" xmlns="http://www.w3.org/2000/svg" xmlns:xlink="http://www.w3.org/1999/xlink" x="0px" y="0px"
	 viewBox="0 0 455 220" style="enable-background:new 0 0 455 220;" xml:space="preserve">
<style type="text/css">
	.st0{fill:#585D90;}
	.st1{fill:#4F5381;}
	.st2{fill:#A2A5C8;}
	.st3{fill:#474B75;}
	.st4{fill:#2E3F4A;}
	.st5{fill:#9094CB;}
</style>
<g>
	<g>
		<g>
			<g>
				<path class="st0" d="M0.7,56.4c-1.1-0.9-0.2-1.4,0.7-1.3c3.1,0.9,9.5,1.3,13.2,0.7c3.4-0.6,17.5-10.2,23.2-14s17,5,17,5
					l10.7,15.8C42.8,71.2,20.7,73,0.7,56.4z"/>
			</g>
		</g>
		<g>
			<g>
				<path class="st1" d="M82.9,0.5c-0.4-1.2-1.3-0.7-1.5,0.2c-0.3,3.2-2.3,9.2-4.2,12.5c-1.8,3-15.8,12.6-21.5,16.4
					c-5.6,3.9-1.6,17.7-1.6,17.7l10.7,15.8C81.1,45.1,90.9,25.3,82.9,0.5z"/>
			</g>
		</g>
	</g>
	<g>
		<g>
			<path class="st1" d="M142.3,78.3c9.8-0.8,18.9-4.5,18.7-8.1c0-1.1-2.5-3.5-0.6-4.7c1.1-0.7,39.2,0.8,58.9,0.5
				C195.3,73.7,139.2,82.1,142.3,78.3z"/>
		</g>
	</g>
	<g>
		<g>
			<path class="st0" d="M454.5,86.9c1.4,3.4-2.6,8-7.5,10.3c-11.9,5.7-40.6,9.5-49.9,12.1c-13.4,3.7-116.9,50.5-200.8,43.3
				C140.6,147.9,70,83.1,58.2,61.9c-2.5-7.8,5-8.4,10-1.9c7.3,9.2,32.9,22.6,51.4,21.2c25.2-0.9,146.3-24.8,168.3-26.2
				c24-1.5,67.1,4.8,67.1,4.8s21.2-1.5,28.7,0.8c23.4,7.1,46.3,9.8,65.7,19.3c2.4,1.1,1.7,2.6,1.7,3.9
				C451.1,83.8,454,85.7,454.5,86.9z"/>
		</g>
	</g>
	<g>
		<g>
			<path class="st2" d="M196.3,152.5c83.8,7.2,192.5-31.3,206.7-36.2c9.2-3.2,34.4-13.4,45.2-19.6c4.6-2.7,7.6-6.6,6.2-10
				c-0.4-1-3.3-2.9-3.3-2.9c0-0.1,0-0.1,0-0.1c-4.8-0.2-58.6-2.8-63.5-1.7c-6.1,1.3-11.7,4.3-12.1,11.7c-0.3,6-3.2,9.6-6.2,11.8
				c-7.5,5.4-37,2.8-48.4,4.2c-9.9,1.2-20.7,8.9-27.6,11.8c-22.5,9.5-67.5,16.2-97.1,11.5C129.6,122.3,82.4,86.9,69,75.9
				C93.7,103.4,150.1,148.5,196.3,152.5z"/>
		</g>
	</g>
	<path class="st3" d="M451.1,83c-1.9-0.1-12.2-0.4-27-1c-8.2-0.2-17.8-0.5-28.1-0.7c-2.6,0-5.2,0-7.9,0.1c-2.7,0.2-5.5,1-7.8,2.6
		c-2.3,1.6-4.1,4.1-4.8,6.9c-0.4,1.4-0.4,2.8-0.6,4.1c0,0.7-0.1,1.4-0.3,2c-0.1,0.7-0.4,1.3-0.6,1.9c-0.9,2.5-2.6,4.6-4.7,6.2
		c-2.1,1.6-4.8,2.1-7.4,2.6c-5.3,0.8-10.6,1-15.7,1.1c-5.1,0-10.1,0.1-14.8,0.1c-4.7,0.1-9.2,0-13.3,1.1s-7.6,2.6-10.6,4
		s-5.6,2.8-7.7,3.9c-4.2,2.3-6.5,3.8-6.5,3.8s2.4-1.4,6.7-3.5c2.1-1.1,4.7-2.4,7.8-3.7c3.1-1.3,6.6-2.8,10.5-3.7
		c3.9-1,8.4-0.9,13.1-1c4.7-0.1,9.7-0.1,14.8-0.1c5.2-0.1,10.5-0.3,15.9-1.1c2.7-0.5,5.5-1,7.9-2.7c2.2-1.7,4.1-4,5.1-6.7
		c0.5-1.3,0.9-2.8,1-4.1c0.1-1.4,0.2-2.8,0.5-4c0.7-2.5,2.3-4.7,4.4-6.1c2.1-1.5,4.6-2.2,7.2-2.4c2.6-0.1,5.2,0,7.8,0
		c10.3,0.2,19.9,0.6,28.1,0.8c16.4,0.6,27.4,1,27.4,1c0.1,0,0.2,0,0.3-0.1c-0.4-0.3-0.7-0.5-0.7-0.5C451.1,83.5,451.1,83.3,451.1,83
		z"/>
	<g>
		<g>
			<g>
				<circle class="st4" cx="367.1" cy="98.1" r="2.4"/>
			</g>
		</g>
	</g>
	<g>
		<g>
			<path class="st1" d="M443.5,75.9c1.3,0.4,2.1,1.4,1.9,2.2c-0.3,0.8-1.6,0.6-2.9,0.2c-1.3-0.4-2.1-0.9-1.9-1.7
				C440.9,75.8,442.1,75.4,443.5,75.9z"/>
		</g>
	</g>
	<g>
		<g>
			<path class="st1" d="M440.5,79.3c1,0.2,1.8,0.9,1.6,1.6c-0.1,0.7-1.3,0.9-2.3,0.7c-1.1-0.2-1.7-0.8-1.5-1.5
				C438.4,79.5,439.4,79.1,440.5,79.3z"/>
		</g>
		<g>
			<path class="st1" d="M428.9,76.2c1,0.3,1.6,1,1.5,1.6c-0.2,0.6-1.2,0.8-2.2,0.6c-1-0.3-1.5-0.9-1.4-1.5
				C427,76.3,427.9,76,428.9,76.2z"/>
		</g>
		<g>
			<path class="st1" d="M418.4,74.7c0.9,0.3,1.5,0.9,1.4,1.5c-0.2,0.6-1.2,0.8-2.1,0.6c-0.9-0.2-1.4-0.8-1.3-1.4
				C416.6,74.8,417.4,74.5,418.4,74.7z"/>
		</g>
		<g>
			<path class="st1" d="M408.4,73.8c0.8,0.2,1.4,0.8,1.3,1.4c-0.1,0.6-1,0.8-1.9,0.6c-0.8-0.2-1.3-0.8-1.2-1.3
				S407.6,73.6,408.4,73.8z"/>
		</g>
		<g>
			<path class="st1" d="M398.4,72.5c0.9,0.2,1.4,0.8,1.3,1.3c-0.1,0.5-1,0.7-1.8,0.5c-0.8-0.2-1.2-0.7-1.1-1.2
				C396.9,72.6,397.7,72.4,398.4,72.5z"/>
		</g>
		<g>
			<path class="st1" d="M388.1,69.5c0.8,0.2,1.3,0.7,1.2,1.2c-0.1,0.5-0.9,0.7-1.7,0.5s-1.2-0.6-1.1-1.1
				C386.7,69.7,387.4,69.4,388.1,69.5z"/>
		</g>
	</g>
	<g>
		<g>
			<path class="st1" d="M434.9,72.6c1.5,0.5,2.5,1.6,2.2,2.5c-0.3,0.9-1.8,0.7-3.3,0.2s-2.5-1-2.2-1.9S433.4,72.2,434.9,72.6z"/>
		</g>
	</g>
	<g>
		<g>
			<path class="st1" d="M424.6,69.7c1.6,0.5,2.7,1.6,2.4,2.5s-1.9,0.6-3.5,0.1c-1.7-0.5-2.7-1-2.4-1.9
				C421.4,69.5,422.9,69.2,424.6,69.7z"/>
		</g>
	</g>
	<g>
		<g>
			<path class="st1" d="M413.7,67c1.4,0.4,2.3,1.3,2.1,2.1c-0.2,0.7-1.5,0.5-2.9,0.1c-1.4-0.4-2.2-0.8-2-1.6
				C411.1,66.9,412.4,66.6,413.7,67z"/>
		</g>
	</g>
	<g>
		<g>
			<path class="st1" d="M403,64.4c1.3,0.3,2.2,1.2,2,1.9c-0.2,0.7-1.4,0.5-2.7,0.2c-1.3-0.3-2.1-0.7-1.9-1.4
				C400.6,64.4,401.8,64.1,403,64.4z"/>
		</g>
	</g>
	<g>
		<g>
			<path class="st1" d="M392.9,61.9c1.3,0.3,2.2,1.2,2,1.9c-0.2,0.7-1.4,0.5-2.7,0.2c-1.3-0.3-2.1-0.7-1.9-1.4
				C390.5,61.9,391.7,61.6,392.9,61.9z"/>
		</g>
	</g>
	<g>
		<g>
			<path class="st5" d="M391.8,86.8c0.1-0.4,0.4-0.5,0.9-0.4c0.3,0.1,0.5,0.4,0.4,0.7l0,0c0,0-0.4,1.2-1.4,3.2
				c-1.1,2-2.7,4.9-5.4,8.1c-2.8,3.1-6.8,6.3-11.8,9.2c-5.1,3-11.5,4.6-18.6,5.3c-7,0.8-14.7,0.8-22.8,1c-4.1,0.2-8.2,0.3-12.4,1.1
				c-4.2,0.8-8.2,2.4-12.2,4.3c-3.9,1.9-7.9,4.1-12,6c-4.2,1.9-8.5,3.6-12.9,5c-8.9,2.7-18.3,4.3-27.6,5.6
				c-9.4,1.3-18.8,2.2-28.1,2.2s-18.4-0.8-27.2-2c-8.8-1.2-17.2-2.9-25.1-4.8c-7.9-2-15.2-4.2-21.9-6.6c-3.4-1.1-6.5-2.5-9.5-3.6
				c-2.9-1.3-5.8-2.5-8.4-3.6c-5.2-2.5-9.7-4.7-13.3-6.7c-3.7-1.9-6.4-3.7-8.3-4.8c-1.9-1.2-2.9-1.8-2.9-1.8s1,0.6,2.9,1.7
				c1.9,1.1,4.6,2.9,8.3,4.8c3.6,2,8.1,4.2,13.3,6.6c2.6,1.1,5.4,2.3,8.4,3.5c3,1.1,6.1,2.4,9.5,3.5c13.4,4.5,29.4,8.7,46.9,11.2
				c8.7,1.2,17.8,1.9,27.1,2c9.3,0.1,18.7-0.9,28-2.1c9.3-1.3,18.6-2.9,27.5-5.6c4.4-1.3,8.7-3.1,12.8-5s8-4.1,12-6.1
				s8.1-3.6,12.3-4.4c4.3-0.8,8.4-1,12.5-1.2c8.1-0.3,15.8-0.3,22.8-1.1c6.9-0.7,13.4-2.3,18.2-5.2c4.9-2.9,8.8-6.1,11.5-9.1
				c2.6-3.1,4.2-6,5.2-7.9S391.8,86.8,391.8,86.8L391.8,86.8z"/>
		</g>
		<g>
			<path class="st5" d="M406.5,87.2c0,0.1,0,0.2,0,0.3l0,0c0,0,0,0.1-0.1,0.3c-0.1,0.1-0.2,0.4-0.5,0.8c-0.3,0.5-0.7,1.2-1.3,2
				c0,0.1-0.1,0.1-0.1,0.2c-1.4,2-3.5,4.6-6.7,7.6c-3.3,3-7.8,6.1-13.3,9.1s-12.4,5-19.9,6.3s-15.7,2-24.4,2.9
				c-4.3,0.5-8.8,1-13.3,1.9c-4.5,0.9-8.9,2.4-13.3,4.2s-8.8,3.7-13.4,5.5c-4.3,1.7-8.7,3.2-13.2,4.5c-1.1,0.3-2.3,0.6-3.5,0.9
				c-8,2-16.2,3.4-24.5,4.5c-3.7,0.5-7.4,0.9-11.1,1.3c-5.8,0.6-11.6,1-17.4,1.1c-6.2,0.1-12.4-0.1-18.5-0.5c-3-0.2-6-0.5-9-0.8
				c-8.8-1-17.3-2.5-25.4-4.4c-7.9-1.9-15.2-4.2-22-6.6c-3.4-1.2-6.5-2.5-9.6-3.7c-3.4-1.5-6.6-3-9.7-4.4c-3.4-1.7-6.5-3.3-9.4-4.9
				c-2.1-1.2-4-2.3-5.8-3.4c-3.9-2.3-7-4.4-9.4-6c-1.8-1.1-2.9-1.8-3.2-2.1s0.1-0.1,1.2,0.5c0.4,0.1,1.2,0.5,2.4,1
				c0.4,0.1,0.7,0.2,1.2,0.3s1.3,0.3,2.3,0.6c0.2-0.1,0.6,0,1.3,0.3c0.7,0.4,1.6,1,2.9,1.8c0.9,0.6,1.8,1.1,2.8,1.7
				c1.7,1,3.5,2,5.5,3.1c1.1,0.6,2.2,1.2,3.3,1.8c3.1,1.6,6.4,3.3,10,5c5.4,2.5,11.3,5.1,17.7,7.5c6.7,2.5,14,4.9,21.8,7
				c3.6,1,7.2,1.8,11,2.6c4.6,0.9,9.4,1.7,14.2,2.3c5.2,0.6,10.5,1.1,15.9,1.2c3.8,0.1,7.6,0.1,11.5-0.1c6.6-0.4,13.2-1,19.8-1.8
				c2.9-0.3,5.7-0.7,8.6-1.1c7.5-1.1,15-2.4,22.3-4.3c1.9-0.5,3.7-1,5.5-1.6c3.1-1,6.1-2.1,9.1-3.2c1.3-0.5,2.6-1.1,3.9-1.6
				c3.3-1.4,6.6-2.8,9.9-4.1c0.8-0.3,1.7-0.7,2.6-1c3.7-1.4,7.4-2.6,11.2-3.4c4.7-1,9.3-1.6,13.8-2.1c8.6-1,16.8-1.7,24.3-3.1
				c7.4-1.3,14.2-3.3,19.6-6.3s9.9-6.1,13.1-9c3.2-2.9,5.3-5.6,6.6-7.5c1-1.7,1.5-2.7,1.6-2.8c0.1-0.1,0.2-0.2,0.2-0.2
				c0.1-0.2,0.4-0.4,0.6-0.3C406.4,87.1,406.6,87.2,406.5,87.2z"/>
		</g>
		<g>
			<path class="st5" d="M420,88.1c0.1,0.1,0.1,0.3,0.1,0.4l0,0c0,0.1,0,0.2-0.1,0.3c0,0.1-0.2,0.4-0.6,0.8c-0.4,0.5-0.9,1.2-1.7,2
				c-0.1,0.1-0.1,0.1-0.2,0.2c-1.7,1.8-4.3,4.4-8.1,7.2s-8.8,5.9-14.8,8.9c-5.9,3.2-13.2,5.5-21.2,7.4c-7.9,1.9-16.7,3.3-25.9,4.9
				c-4.6,0.8-9.4,1.6-14.2,2.7c-4.8,1.1-9.6,2.6-14.4,4.2c-4.8,1.6-9.7,3.3-14.7,4.9c-4.4,1.5-8.9,2.8-13.5,4
				c-1.2,0.3-2.4,0.6-3.6,0.9c-8.1,2-16.4,3.3-24.8,4.4c-3.7,0.4-7.5,0.8-11.2,1.2c-5.9,0.5-11.7,1-17.6,1.2
				c-6.4,0.2-12.6,0.2-18.8,0c-3.1-0.1-6.2-0.3-9.2-0.6c-8.9-0.8-17.6-2.1-25.8-4c-7.8-1.9-15.2-4.1-22.1-6.6
				c-3.4-1.2-6.6-2.5-9.7-3.8c-3.8-1.7-7.5-3.5-11-5.2c-3.8-1.9-7.3-3.9-10.6-5.8c-2.3-1.3-4.5-2.7-6.6-4c-4.2-2.6-7.7-5-10.6-7.1
				c-1.6-1.2-2.8-2-3.4-2.5c-0.7-0.5-0.8-0.8-0.5-0.7c-0.7-0.8-1-1.2-0.9-1.5c-0.2-0.3-0.3-0.5-0.3-0.7c-0.5-0.7-0.7-1.2-0.5-1.5
				c-0.7-0.8-0.8-1.1-0.3-0.9c0.4,0.2,1.4,1,3,2.2c0.9,0.6,1.8,1.3,2.9,2.1c1.7,1.2,3.7,2.5,5.8,3.9c1.1,0.7,2.2,1.4,3.4,2.2
				c3.2,1.9,6.7,4.2,10.6,6.4c5.6,3.2,11.9,6.6,18.8,9.9c7.1,3.3,15,6.6,23.4,9.4c3.9,1.2,7.9,2.4,12,3.5c5,1.2,10.2,2.3,15.5,3.2
				c5.7,0.9,11.5,1.5,17.5,1.8c4.2,0.1,8.4,0.2,12.7,0c7.2-0.3,14.5-0.9,21.8-1.7c3.2-0.4,6.3-0.7,9.5-1.1c8.4-1,16.7-2.3,24.8-4.1
				c2.1-0.4,4.1-1,6.1-1.5c3.4-0.9,6.8-1.9,10.2-3c1.5-0.4,3-0.9,4.5-1.4c3.8-1.3,7.5-2.6,11.2-3.8c1-0.4,2-0.7,3-1
				c4.2-1.3,8.3-2.5,12.5-3.5c5.2-1.2,10.2-2.1,15.1-3c9.3-1.7,18-3.2,25.9-5.1s15.1-4.3,21-7.4c5.9-3,10.8-6,14.6-8.8
				c3.7-2.8,6.3-5.4,8-7.2c1.1-1.4,1.7-2.3,2-2.5c0.3-0.3,0.4-0.4,0.4-0.4c0.1-0.2,0.2-0.2,0.4-0.2C420.1,87.6,420.3,87.7,420,88.1z
				"/>
		</g>
		<g>
			<path class="st5" d="M434.2,88.6c0.1,0.1,0.1,0.3,0.1,0.4l0,0c0,0.1-0.1,0.2-0.2,0.3c0,0.1-0.2,0.3-0.7,0.8
				c-0.4,0.4-1.1,1.1-2,1.9c0,0.1-0.1,0.1-0.2,0.2c-2.1,1.8-5.3,4.2-9.6,6.9s-9.8,5.6-16.3,8.7c-6.5,3.2-14.1,6-22.6,8.4
				c-8.5,2.5-17.7,4.7-27.5,6.9c-5,1.1-10,2.2-15.2,3.5c-5.2,1.3-10.4,2.7-15.6,4.2c-5.3,1.4-10.6,2.9-16.1,4.4
				c-4.6,1.2-9.2,2.4-13.9,3.5c-1.3,0.2-2.5,0.5-3.7,0.8c-8.2,1.8-16.6,3.2-25.1,4.2c-3.8,0.4-7.6,0.8-11.4,1.2
				c-6,0.5-12,1-17.9,1.4c-6.4,0.4-12.7,0.6-19,0.5c-3.1,0-6.2-0.1-9.3-0.3c-9-0.5-17.8-1.7-26.2-3.6c-7.8-1.7-15.2-3.9-22.2-6.5
				c-3.4-1.2-6.7-2.6-9.8-3.9c-4.3-1.9-8.4-4-12.3-6c-4.2-2.3-8.1-4.5-11.8-6.8c-2.5-1.6-5-3.1-7.3-4.7c-4.4-2.9-8.3-5.8-11.7-8.3
				c-1.5-1.1-2.8-2-3.7-2.8c-1-0.8-1.7-1.4-2.2-1.9c-1.7-1.5-3.1-2.8-4.1-3.9c-0.7-0.7-1.3-1.3-1.8-1.8c-1.6-1.5-2.7-2.7-3.4-3.6
				c-1.4-1.4-2-2.1-1.8-2c0.3,0.1,1.3,1,3.2,2.6c0.8,0.7,1.9,1.6,3,2.5c1.8,1.3,3.8,2.9,6.1,4.7c1.2,0.9,2.4,1.8,3.6,2.7
				c3.3,2.4,7,5.1,11.1,7.9c5.8,3.9,12.5,8.2,19.9,12.3c7.6,4.2,16,8.3,25.1,11.9c4.1,1.6,8.4,3.1,12.9,4.5c5.4,1.7,11,3.1,16.8,4.2
				c6.3,1.2,12.7,2,19.2,2.4c4.6,0.2,9.2,0.3,13.9,0.2c7.9-0.2,15.9-0.8,23.9-1.6c3.5-0.3,6.9-0.7,10.4-1c9.1-1,18.3-2.2,27.2-4
				c2.3-0.5,4.5-1,6.7-1.5c3.8-1,7.6-1.9,11.3-2.9c1.7-0.4,3.4-0.9,5-1.3c4.2-1.2,8.4-2.4,12.5-3.5c1.1-0.3,2.2-0.6,3.3-0.9
				c4.7-1.3,9.3-2.6,13.8-3.7c5.6-1.4,11.1-2.6,16.4-3.9c9.8-2.3,19-4.5,27.4-7c8.4-2.5,15.9-5.3,22.3-8.5
				c6.4-3.1,11.9-6.1,16.2-8.7c4.3-2.6,7.4-5,9.4-6.8c1.1-1.1,1.9-1.9,2.3-2.3c0.5-0.4,0.7-0.6,0.7-0.6c0-0.1,0.1-0.1,0.2-0.1
				C433.7,88.2,434,88.2,434.2,88.6z"/>
		</g>
		<g>
			<path class="st5" d="M447.2,88.9c0.2-0.2,0.6-0.1,0.9-0.1c0.2,0.2,0.1,0.6-0.1,0.8c0,0-0.3,0.2-0.9,0.7s-1.5,1.2-2.7,2.1
				c-2.4,1.8-6.1,4.1-11,6.6c-4.9,2.5-10.9,5.3-17.9,8.5c-6.9,3.3-15,6.5-23.9,9.5s-18.6,5.9-29,8.8c-10.4,2.8-21.4,5.7-32.8,8.4
				c-5.8,1.3-11.6,2.6-17.5,3.9c-5.9,1.2-11.9,2.4-17.9,3.7c-12.1,2.6-24.5,4.1-37,5.3c-12.5,1.1-25,2.4-37.3,2.6
				c-12.3,0.3-24.5-0.8-36-3.3s-22.3-6.2-32.1-10.6c-9.9-4.5-18.8-9.5-26.7-14.5c-7.9-5.1-14.8-10.1-20.9-14.8
				c-6-4.7-11.1-9-15.2-12.6s-7.3-6.5-9.4-8.5c-2.2-2-3.3-3.1-3.3-3.1s1.1,1.1,3.3,3.1s5.4,4.9,9.5,8.5c4.1,3.6,9.3,7.8,15.3,12.5
				c6.1,4.7,13.1,9.7,21,14.7c8,5,16.9,9.9,26.7,14.3c9.8,4.4,20.5,8.1,32,10.6s23.6,3.6,35.9,3.4c12.4-0.2,24.8-1.6,37.3-2.6
				c12.5-1.1,24.9-2.7,37-5.2c6-1.3,12-2.5,17.9-3.8c5.9-1.4,11.7-2.7,17.4-4c11.4-2.7,22.4-5.7,32.7-8.6c10.3-3,20-5.9,28.9-9
				c8.9-3,16.8-6.2,23.7-9.5c7-3.1,13-6,17.8-8.5c4.9-2.5,8.5-4.8,10.8-6.5c1.2-0.9,2-1.6,2.6-2.1C446.9,89.2,447.2,88.9,447.2,88.9
				L447.2,88.9z"/>
		</g>
	</g>
	<g>
		<g>
			<path class="st0" d="M315.6,119.7c-15.3,4-37.7,46.5-38,52.1c-0.3,5.6-20.9,26.8-24,35.8c-2.5,7.2,2.7,12.8,13.1,9.3
				c12.2-4.1,51.6-49.3,53.9-53.9c3.5-6.8,1-33.3,15.3-43.3C335.9,119.7,330,116,315.6,119.7z"/>
		</g>
	</g>
	<g>
		<g>
			<path class="st2" d="M266.7,216.9c9.2-3,30.4-24.9,45.3-42.8c-10.4,7.6-25.8,22.1-36.1,26.4c0,0,15.8-28.4,13.2-32.8
				c-2.3-4-9.1,1.8-12.3,6.4c-4.8,9.3-20.3,25.3-23.1,33.5C251.2,214.8,256.4,220.4,266.7,216.9z"/>
		</g>
	</g>
</g>
</svg>
