<?xml version="1.0" encoding="utf-8"?>
<!-- Generator: Adobe Illustrator 20.1.0, SVG Export Plug-In . SVG Version: 6.00 Build 0)  -->
<svg version="1.1" id="Layer_1" xmlns="http://www.w3.org/2000/svg" xmlns:xlink="http://www.w3.org/1999/xlink" x="0px" y="0px"
	 viewBox="0 0 455 220" style="enable-background:new 0 0 455 220;" xml:space="preserve">
<style type="text/css">
	.st0{fill:#34384B;}
	.st1{fill:#2C3040;}
	.st2{fill:#EADFD2;}
	.st3{fill:#C4A061;}
	.st4{fill:#667269;}
	.st5{fill:#283640;}
	.st6{fill:#292C3B;}
</style>
<g>
	<g>
		<path class="st0" d="M183.7,44.1c0,0,9.7-3.2,12.9-11.8c4.3-12.9-7.5-20.4-16.1-24.7c-2.2-1.1-2.2-3.2-1.1-3.2
			c4.3-1.1,21.5,0,33.3,6.4c12.9,6.4,21.5,21.5,37.6,24.7L183.7,44.1z"/>
	</g>
	<g>
		<g>
			<path class="st0" d="M77.3,219.1c0,1.1-1.1,1.1-1.1,0c0-3.2-2.2-8.6-4.3-11.8c-1-3.2-13.9-11.8-19.3-15c-5.3-2.1-3.2-15-3.2-15
				l9.7-18.3C75.2,174.1,84.9,192.3,77.3,219.1z"/>
		</g>
		<g>
			<path class="st1" d="M0,178.3c0,1.1,0,1.1,1.1,1.1c2.1-1.1,8.6-3.2,11.8-3.2s18.2,4.3,23.6,7.5c5.4,2.2,14-6.4,14-6.4l9.7-18.3
				C37.6,154.7,17.2,158,0,178.3z"/>
		</g>
	</g>
	<g>
		<path class="st2" d="M410.5,125.6c1.1,2.1-1.1,6.4-8.6,6.4c-16.1,0-31.2-6.4-46.2-10.7c0,0-50.5,3.3-89.2,5.4
			c-3.2,0-72-5.3-96.7-2.1c-90.3,10.8-109.6,43-109.6,43c-5.4,6.5-9.7,3.3-8.6-2.1c0,0,26.8-102.1,154.7-127.8
			c90.2-18.3,153.6,27.9,165.4,49.4c3.2,5.4,6.4,17.2,6.4,17.2C393.2,112.9,407.1,119.3,410.5,125.6z"/>
	</g>
	<g>
		<path class="st3" d="M190.1,40.9v40.8c19.3,3.2,75.2,6.4,79.5,6.4c41.9,4.3,57,8.6,74.1,17.3c14,7.5,34.4,3.2,34.4-1.1
			c0,0-3.2-11.8-6.4-17.2c-10.8-21.5-75.2-67.7-165.5-49.4c-5.3,1.1-9.6,2.1-15,3.2H190.1z"/>
	</g>
	<g>
		<path class="st4" d="M60.2,166.5c24.7-40.8,128.9-63.3,131-85.9l0,0V40.9C76.3,71,51.6,165.5,51.6,165.5
			C50.5,170.9,54.8,174.1,60.2,166.5z"/>
	</g>
	<g>
		<path class="st0" d="M59,166.5c0,0,19.3-49.4,79.5-78.4c14-6.4,39.8-10.7,51.6-7.5c9.6-8.6,32.2-27.9,65.5-27.9
			c47.3,0,75.2,20.4,93.5,37.6c15,16.1,23.6,15.1,29,14l0,0c0,0-3.2-11.8-6.4-17.2c-10.8-21.5-75.2-67.7-165.4-49.4
			C78.5,63.5,51.6,165.5,51.6,165.5C50.5,170.9,54.8,174.1,59,166.5z"/>
	</g>
	<g>
		<path class="st0" d="M278.2,106.4c-6.5,2.2-11.9,10.8-22.6,22.6c-6.4,8.6-16.1,12.9-23.6,14c-2.1,0-1,2.1,1.1,3.2
			c11.8,3.2,36.5,6.4,50.5-5.4c11.9-9.7,16.2-22.6,18.3-31.2C302.9,105.3,289,103.2,278.2,106.4z"/>
	</g>
	<g>
		<path class="st0" d="M355.6,119.3L355.6,119.3c15,5.4,29,11.8,46.1,10.7c6.5,0,9.7-3.2,8.6-6.4c-4.3-5.4-17.2-10.7-32.2-20.4
			c-8.6,4.3-20.4,2.1-45.1-5.4C342.7,105.3,360.9,118.2,355.6,119.3z"/>
	</g>
	<g>
		<g>
			<circle class="st5" cx="336.2" cy="98.9" r="4.3"/>
		</g>
	</g>
	<g>
		<path class="st6" d="M340.5,104.2c0-1,0-2.1,0-2.1c1,0,2.1,0,2.1,0c15,12.9,52.6,23.6,65.5,23.6c1.1,0,1.1,0,1.1,0s1.1,0,1.1,1.1
			c0,0-1,1.1-2.1,1.1c1.1,0,0,0,0,0C395.3,127.9,357.7,117.1,340.5,104.2z"/>
	</g>
</g>
</svg>
