<?xml version="1.0" encoding="utf-8"?>
<!-- Generator: Adobe Illustrator 20.1.0, SVG Export Plug-In . SVG Version: 6.00 Build 0)  -->
<svg version="1.1" id="Layer_1" xmlns="http://www.w3.org/2000/svg" xmlns:xlink="http://www.w3.org/1999/xlink" x="0px" y="0px"
	 viewBox="0 0 631.9 220" style="enable-background:new 0 0 631.9 220;" xml:space="preserve">
<style type="text/css">
	.st0{fill:#736157;}
	.st1{fill:#5C4E47;}
	.st2{fill:#3A322E;}
	.st3{fill:#BBBCBE;}
	.st4{fill:#A18C83;}
</style>
<g>
	<path class="st0" d="M120.3,72.6C112,79.7,39,49,27.2,40.8c-11.8-7-2.3-11.8,5.9-20c8.3-8.3,49.5,4.7,71.9,15.3s28.3,8.2,28.3,8.2
		C153.3,44.3,128.6,66.7,120.3,72.6z"/>
	<path class="st1" d="M588.1,86.8c1.2,3.5,7.1,5.9,7.1,5.9c5.9,1.2,9.4,5.9,15.3,2.4c-4.8-1.2-9.5-3.6-13-7.1
		c-7.1-7.1-7.1-8.3-1.2-16.5c5.9-8.2,10.6-17.7,5.9-21.2c0-1.2-1.2-1.2-1.2-1.2c5.9,7-3.5,18.8-8.2,24.7
		C588.1,79.6,588.1,83.2,588.1,86.8z"/>
	<path class="st2" d="M594.2,99.6c0,0,2.3-4.7-1.2-8.2c-1.2,0-1.2-1.2-1.2-1.2c-1.2-1.1-2.4-2.3-2.4-3.5c-1.2-3.6-1.2-5.9,3.5-11.8
		c3.5-5.8,14.1-17.6,8.2-24.7c-1.2-1.2,4.7,8.2-7.1,21.2c-14.2,15.3-14.2,5.8-17.7,8.2S579.8,90.2,594.2,99.6z"/>
	<path class="st1" d="M22.5,26.6c0,0,15.4,4.7,23.6,7.1c8.3,2.3,15.3,3.5,7.1-1.2c-8.3-4.7-26-4.7-29.5-8.2
		C22.5,25.4,22.5,26.6,22.5,26.6z"/>
	<path class="st0" d="M1,27L1,27c25.4,31,76,25.8,90.5,32.3c14.4,6.5,21.7,2.6,25.3,6.5c3.6,3.9,27.7,14.3,60.3,25.9
		c32.6,12.9,119.4,54.3,119.4,54.3c60.3,31,90.5,11.6,90.5,11.6s47.1,13,54.3,25.9c7.2,12.9,36.1,28.4,66.3,9
		c31.4-19.4,59.1-74.9,59.1-80.1c0-5.2-9.6-14.3,0-10.4c6,2.6,15.7,2.6,21.7,1.3c6-5.2-12.1-16.8-12.1-22c0-5.1,12-0.4,19.2,7.4
		c2.4,2.6,12.2,5.6,14.6,6.9c6.1-3.9,14.5-12.9,16.9-28.4c3.6-20.7-4.8-54.3-19.2-50.5c-13.3,3.9-26.5,6.4-36.2,2.6
		S540.2,6.4,523.1,9.1c-16.9,2.6-22.9,20.7-55.5,23.3C433.9,35,357.9,14.3,318.1,13c-38.5-1.3-115.7-7.8-148.3,9
		c-32.6,18.1-53.1,25.9-59.1,31s-9.7-3.9-16.9-7.8c-6-3.8-50.7-23.2-76-27.1c-2.4,1.3-3.6,1.3-4.8,2.6c3.7,3.8,21.8,3.8,30.2,9
		c8.5,6.5,1.2,3.9-7.2,1.3c-8.4-3.9-24.1-7.8-24.1-7.8s-3.6,0-8.4,3.9C3.5,28.4,2.3,29.7,1,27z"/>
	<path class="st1" d="M14.3,33.7c1.1,5.9,14.1,17.7,40,28.4c28.2,11.8,74.2,20,78.9,21.2c23.6,9.5,55.4,22.4,93.1,40.1
		c47.2,22.3,90.8,54.2,196.8,89.5s152-100.2,152-100.2c10.7-3.5,15.4-7.1,18.9-10.6l0,0l0,0c1.2-1.2,2.4-1.2,2.4-2.4
		c-14.2-8.3-21.2-16.5-17.7-18.9c3.5-2.3,3.5,7.1,17.7-8.3c12.9-14.1,5.8-22.4,8.2-21.2l0,0c0,0-2.4-1.2-2.4,2.4s0,9.7-5.9,16.7
		c-5.9,7-10.6,8.2-14.1,8.2c-2.4,0-5.9,0-5.9,4.7s17.7,15.3,11.8,20c-5.9,1.2-15.3,1.2-21.2-1.2c-10.6-3.6-2.4,4.7-2.4,9.4
		c0,4.8-25.9,55.4-55.4,73.1s-57.7,3.6-64.8-8.2c-7-11.8-53-23.6-53-23.6s-29.5,16.5-88.4-10.6c0,0-84.8-38.9-116.6-49.5
		c-31.8-11.8-55.4-20.1-58.9-23.6s-10.6,0-24.7-5.9C88.5,57.3,46,49.2,14.3,33.7L14.3,33.7z"/>
	<path class="st2" d="M562.2,30c-8.2-3.5-16.5-1.1-21.2,2.4c-4.8,4.8-2.4-5.8,8.2-8.2c10.6-2.3,16.5,2.4,16.5,2.4
		C569.2,27.8,571.6,32.5,562.2,30z"/>
	<path class="st3" d="M586.9,92.7c0,0,3.5-2.4,4.7-2.4s-1.2,3.5-1.2,3.5C588.1,93.8,586.9,92.7,586.9,92.7z"/>
	<path class="st4" d="M28.5,25.4c25.9,3.5,68.3,21.2,74.2,24.7c7.1,3.6,10.6,11.8,16.5,7.1s25.9-13,57.7-28.3s106-9.4,144.9-8.2
		c38.9,0,114.3,20.1,146.1,17.7c7-1.2-3.6,18.9,3.5,11.8c7.1-8.3,22.4-18.9,22.4-18.9c11.8-5.9,17.7-14.1,28.3-15.3
		c16.5-2.4,37.6,5.8,47.1,9.4s21.2,1.2,35.3-2.4c13-3.5,22.4,27.1,18.9,46c-2.3,14.2-11.8,22.4-16.4,25.9c1.1,0,2.3,1.2,3.5,1.2
		c3.5-1.2,5.9-4.7,10.6-10.6c12.9-17.6,10.6-44.7,2.3-56.5c-8.2-13-9.4-19-24.7-16.6s-20,8.3-48.3-3.5
		c-29.5-11.7-48.3-3.4-69.5,10.7c-21.2,14.1-77.8,0-77.8,0c-114.3-33-207.4-10.6-240.4,0c-14.1,4.7-31.8,15.3-42.4,25.9
		c-3.5,2.3-7,2.3-14.1-2.4c-10.6-7.1-46-18.8-64.8-21.2C35.5,20.7,30.8,21.9,28.5,25.4z"/>
	<path class="st1" d="M424.3,201.8c1.2-1.3,1.2-1.3,2.4-2.5l0,0c0,0-20.4,16.1-43.2,6.2c-20.4-8.7-72-33.5-90-37.2
		c0,1.2,0,2.5,2.4,3.7c7.2,6.2,34.8,16.1,68.4,31C397.9,217.8,412.3,209.2,424.3,201.8z"/>
	<path class="st0" d="M294.7,167.8L294.7,167.8c-1.2,0-1.2,1.3-1.2,1.3c18.2,2.6,70.2,29.5,90.7,38.5c23,10.3,43.5-6.4,43.5-6.4l0,0
		c10.8-10.2,20.5-34.6,20.5-34.6c3.7-7.7-1.2-21.8-20.5-26.9c-19.3-3.8-37.4,2.6-47.1,24.4c-3.6,10.3-14.5,11.6-25.4,10.3
		c0,0,20.5,7.7,32.6,15.4s21.8,19.3-1.2,9C364.8,187.2,310.4,162.8,294.7,167.8z"/>
	<path class="st4" d="M294.7,167.8L294.7,167.8c15.3-3.5,67.1,20.1,89.5,29.5c22.4,10.7,13-1.1,1.2-8.2c-11.8-7-31.8-14.1-31.8-14.1
		c-12.9-2.3-27.1-7-36.5-8.2C306.5,164.5,298.2,165.7,294.7,167.8z"/>
	<path class="st4" d="M419.6,151.5c-11.8-3.5-20.1,0-18.9-3.5c2.4-3.5,11.8-7.1,23.6-5.9c10.6,1.2,14.1,11.8,14.1,11.8
		C440.8,160.9,431.4,155.1,419.6,151.5z"/>
</g>
</svg>
