<?xml version="1.0" encoding="utf-8"?>
<!-- Generator: Adobe Illustrator 20.1.0, SVG Export Plug-In . SVG Version: 6.00 Build 0)  -->
<svg version="1.1" id="Layer_1" xmlns="http://www.w3.org/2000/svg" xmlns:xlink="http://www.w3.org/1999/xlink" x="0px" y="0px"
	 viewBox="0 0 455 220" style="enable-background:new 0 0 455 220;" xml:space="preserve">
<style type="text/css">
	.st0{fill:#4F2B11;}
	.st1{fill:#AD7B40;}
	.st2{fill:#97212A;}
	.st3{fill:#FFFFFF;}
	.st4{fill:#F7DAAA;}
</style>
<path class="st0" d="M77.2,112.6C65.4,107.8,86.7,96,86.7,96s0-2.4,0-9.5s16.6-16.6,16.6-16.6s-16.6,2.4-14.2-7.1
	c4.7-9.5,30.7-16.6,30.7-16.6s-28.4,7.1-16.6-9.5c11.9-16.6,42.6-9.5,42.6-9.5S91.4,5.9,126.9,5.9c35.5,2.3,80.4,30.7,80.4,30.7
	S86.7,114.7,77.2,112.6z"/>
<path class="st0" d="M84.3,119.3c-9.5,2.4,7.1,14.2,7.1,14.2s0,2.4,0,9.5s14.2,16.6,14.2,16.6s-14.2-4.8-11.8,4.7
	c0,9.5,23.7,16.6,23.7,16.6s-23.7-9.5-14.2,7.1c9.5,14.2,35.5,11.8,35.5,11.8s-47.3,14.2-16.6,16.6c33.1,2.4,73.3-18.9,73.3-18.9
	S98.5,117,84.3,119.3z"/>
<path class="st1" d="M36.9,79.3c0,0-18.9-4.8-30.7,37.8c-11.8,37.8,23.7,59.1,23.7,59.1s4.8-14.2,23.7-28.4s14.2-19,28.4-9.5
	c11.8,9.5,61.5,56.8,99.3,63.9c37.9,7.1,78.1-14.2,78.1-18.9c0-7.1-59.1-21.3-61.5-26c-4.8-4.7,28.3-71,37.8-82.8
	c9.5-9.5,16.5-16.6-14.2-35.5c-30.8-18.9-66.2-9.5-89.9,7.1C108,65,86.7,105.2,72.5,112.3c-14.2,7.1-21.3-4.7-21.3-4.7L36.9,79.3z"
	/>
<circle class="st2" cx="200.2" cy="69.7" r="14.2"/>
<circle class="st3" cx="200.2" cy="69.7" r="9.5"/>
<path class="st3" d="M226.2,124c0,0,0,9.5,2.4,9.5c2.3,0,4.7-18.9,4.7-18.9s4.7,28.3,7.1,21.3s0-30.7,0-30.7
	c7.1,9.5,9.5,28.4,9.5,28.4c4.7-11.8,0-40.2,0-40.2c7.1,4.7,9.5,30.7,9.5,30.7c7.1-11.8,0-37.8,0-37.8c7.1,4.7,11.8,28.4,11.8,28.4
	c4.7-16.6-7.1-42.6-7.1-42.6C252.2,72.1,226.2,124,226.2,124z"/>
<path class="st3" d="M219.2,166.6c0,0-4.8-9.5-2.4-9.5c2.4-2.3,9.5,9.5,9.5,9.5s-9.4-21.3-4.7-18.9c4.7,4.7,14.2,21.3,14.2,21.3
	c0-11.8-7.1-26-7.1-26c9.4,4.7,18.9,30.7,18.9,30.7c2.3-9.4-9.5-30.7-9.5-30.7c9.4,2.4,18.9,28.4,18.9,28.4
	c2.4-9.4-7.1-33.1-7.1-33.1c16.6,7.1,21.3,40.2,21.3,40.2C261.7,183.3,219.2,166.6,219.2,166.6z"/>
<path class="st0" d="M205,171.5c9.4,2.4,52,23.7,66.2,21.3c14.2-4.8,7.1-19-4.7-23.7c-14.2-4.7-59.1-9.5-61.5-14.2
	c-2.4-4.8,54.4-78.1,61.5-85.2c7.1-7.1,0-16.6-9.5-18.9c-9.5-2.3-14.2,0-28.4,26c-33.1,49.7-33.1,85.2-33.1,85.2
	C193.1,171.5,195.5,166.7,205,171.5z"/>
<path class="st0" d="M157.6,145.5V91.1c30.8,4.7,28.4,30.7,28.4,30.7C183.7,145.4,155.3,145.4,157.6,145.5z"/>
<circle class="st4" cx="141.1" cy="112.3" r="7.1"/>
<circle class="st4" cx="124.5" cy="128.9" r="7.1"/>
<circle class="st4" cx="115.1" cy="107.6" r="4.7"/>
<circle class="st4" cx="143.4" cy="133.6" r="4.7"/>
<circle class="st4" cx="202.6" cy="95.8" r="4.7"/>
<circle class="st4" cx="162.4" cy="81.6" r="4.7"/>
<circle class="st4" cx="178.9" cy="157.3" r="4.7"/>
<circle class="st4" cx="91.4" cy="126.5" r="4.7"/>
<circle class="st4" cx="155.3" cy="169.1" r="4.7"/>
</svg>
