<?xml version="1.0" encoding="utf-8"?>
<!-- Generator: Adobe Illustrator 20.1.0, SVG Export Plug-In . SVG Version: 6.00 Build 0)  -->
<svg version="1.1" id="Layer_1" xmlns="http://www.w3.org/2000/svg" xmlns:xlink="http://www.w3.org/1999/xlink" x="0px" y="0px"
	 viewBox="0 0 792 41" style="enable-background:new 0 0 792 41;" xml:space="preserve">
<style type="text/css">
	.st0{fill:#14141F;}
</style>
<rect x="-8" y="-14.7" width="811.4" height="56.3"/>
<path class="st0" d="M752.9,26.3c-4.6-1-34.2-0.6-38.9-0.6c-4.7,0-14.8,6.7-20.5,7.3c-5.7,0.6-20.7-1.8-30.7-1.9
	c-10-0.1-17-1.3-20.7,0.1c-3.7,1.4-8.3,2.7-10.6,2.6c-2.3-0.1-16.6-2.9-16.6-2.9s-19.6,1.9-24.4,3.2c-4.8,1.2-15.3-1.6-17.9-1.6
	c-2.7,0-22.4,3.9-25.6,2.8c-1.4-0.5-3.3-0.4-5.6-0.4c-9.3,0-35.8-5.8-41.3-3.2c-5.5,2.7-25.5,5-33.7,2.7c-8.2-2.4-6.8-4.7-24.6-3
	C423.9,33,406.3,40,397,39.4c-9.3-0.6-74.7,1.1-82.6-1.1s-20.8-6.5-23.5-5.8c-2.7,0.6-103.2,3.5-110.4,2c-7.3-1.4-22.2-3.8-27.8-0.9
	c-5.5,2.9-88.4,2.4-97.7-0.6s-17,3.2-27.6,4.1C16.9,38-8.3,31.2-8.3,31.2v10.9H804V8.9C772.3,6.9,757.5,27.4,752.9,26.3z"/>
</svg>
