<?xml version="1.0" encoding="utf-8"?>
<!-- Generator: Adobe Illustrator 20.1.0, SVG Export Plug-In . SVG Version: 6.00 Build 0)  -->
<svg version="1.1" id="Layer_1" xmlns="http://www.w3.org/2000/svg" xmlns:xlink="http://www.w3.org/1999/xlink" x="0px" y="0px"
	 viewBox="0 0 455 220" style="enable-background:new 0 0 455 220;" xml:space="preserve">
<style type="text/css">
	.st0{fill:#C09CDC;}
	.st1{fill:#9860AB;}
	.st2{fill:#6C466D;}
	.st3{fill:#865496;}
	.st4{fill:#9B61B5;}
	.st5{fill:#9960AF;}
	.st6{fill:#6F4A6E;}
	.st7{fill:#E5D6F2;}
	.st8{fill:#4F354E;}
</style>
<g>
	<path class="st0" d="M397.9,110H277.5l0,0c0-23.3,10.2-45.6,28.2-60.3c12.2-9.9,27.3-17,46.2-20.5L397.9,110z"/>
	<path class="st1" d="M397.9,110H277.5l0,0c0,23.3,10.2,45.6,28.2,60.3c12.2,9.9,27.3,17,46.2,20.5L397.9,110z"/>
	<g>
		<path class="st2" d="M119.3,92.9c0,0-2.4-0.2-6.5-0.6c-1-0.1-2.2-0.2-3.4-0.3c-0.6-0.1-1.3-0.1-2-0.2c-0.4,0-0.9-0.1-1.3-0.1
			c-0.3,0-0.7-0.1-1.1-0.1c-0.4-0.1-0.7-0.1-1.1-0.2c-0.5-0.1-1-0.2-1.6-0.3c-0.5-0.1-1.1-0.2-1.6-0.4c-0.5-0.2-1-0.3-1.4-0.5
			c-1.9-0.7-3.9-1.6-5.8-2.8c-1.8-1.2-3.7-2.6-5.3-4.4l-0.6-0.6L87,81.7c-0.4-0.5-0.8-0.9-1.1-1.4c-0.7-1-1.4-2-2-3.1
			s-1.1-2.3-1.6-3.4c-0.2-0.6-0.4-1.2-0.6-1.8l-0.3-0.9l-0.2-1c-0.1-0.6-0.3-1.3-0.4-1.9c-0.1-0.7-0.1-1.3-0.2-2s0-1.3-0.1-2v-1
			v-0.3v-0.1v-0.1v-0.2v-0.4c0.1-0.6,0.1-1.1,0.2-1.7c0.1-0.7,0.3-1.4,0.4-2.2c0.1-0.7,0.4-1.3,0.5-2c0.2-0.7,0.4-1.3,0.7-1.9
			c1-2.6,2.4-4.9,4.1-7.1c3.4-4.3,8.3-7.4,13.5-8.9c2.6-0.7,5.4-1,8-0.9c2.4,0.1,4.7,0.2,7.1,0.3c2.3,0.1,4.7,0.2,7,0.3
			c0.6,0,1.1,0,1.7,0.1c0.5,0,1.1,0,1.6,0c0.6,0,1.1-0.1,1.5-0.1c0.5-0.1,1-0.1,1.5-0.2c2-0.3,3.9-1,5.7-1.9s3.4-2.1,4.8-3.3
			c2.8-2.6,4.8-5.8,5.8-9.1c0.3-0.8,0.5-1.6,0.6-2.4c0.1-0.4,0.2-0.8,0.2-1.2c0-0.4,0.1-0.8,0.1-1.2c0.1-0.8,0.1-1.6,0.2-2.3
			c0-0.8,0.1-1.5,0.1-2.2c0.1-2.9,0.2-5.4,0.3-7.5c0.2-4.2,0.3-6.5,0.3-6.5s0.1,2.4,0.3,6.5c0.1,2.1,0.2,4.6,0.3,7.5
			c0,0.7,0.1,1.5,0.1,2.2c0,0.8,0.1,1.6,0,2.4c0,0.4,0,0.9,0,1.3S147,21,147,21.4c-0.1,0.9-0.3,1.8-0.5,2.7
			c-0.8,3.7-2.7,7.4-5.6,10.7c-1.5,1.6-3.2,3.1-5.2,4.3s-4.2,2.2-6.5,2.8c-0.6,0.2-1.2,0.3-1.9,0.4c-0.6,0.1-1.3,0.2-1.8,0.3
			l-0.8,0.1h-0.4h-0.2H124h-0.1h-0.2c-0.6,0-1.1,0-1.7,0.1c-2.3,0.1-4.6,0.2-7,0.3c-2.3,0.1-4.7,0.2-7.1,0.3
			c-2.1,0.1-4.1,0.5-6.1,1.2c-3.8,1.5-7.1,4-9.3,7.3c-1.1,1.6-1.9,3.4-2.4,5.2c-0.2,0.4-0.3,0.9-0.3,1.4c-0.1,0.4-0.2,0.9-0.2,1.3
			c0,0.4-0.1,0.8-0.1,1.2c0,0.5,0,1.1,0,1.6V63v0.2v0.1v0.1c0-0.4,0-0.1,0-0.2l0.1,0.7c0.1,0.4,0.1,0.9,0.2,1.3s0.2,0.9,0.3,1.3
			c0.1,0.4,0.2,0.8,0.4,1.2l0.2,0.6l0.2,0.6c0.2,0.4,0.3,0.8,0.5,1.1c0.4,0.7,0.7,1.5,1.2,2.1c0.4,0.7,1,1.3,1.4,1.9
			c0.3,0.3,0.5,0.6,0.8,0.8l0.4,0.4l0.4,0.4c1.1,1,2.3,1.7,3.5,2.4c1.2,0.6,2.4,1.1,3.6,1.3c0.3,0.1,0.6,0.1,0.9,0.2
			s0.5,0.1,0.7,0.1s0.5,0.1,0.7,0.1c0.3,0,0.7,0,1.1,0.1c0.4,0,0.7,0,1.1,0.1h0.1c0.1,0-0.5,0-0.3,0l0,0h0.1h0.3h0.5
			c0.7,0,1.3,0,2,0c1.3,0,2.4,0,3.5,0c4.2,0,6.6,0,6.6,0L119.3,92.9z"/>
		<path class="st3" d="M119.6,102.4c0,0-2.2-0.1-6.1-0.3c-1,0-2.1-0.1-3.2-0.1c-0.6,0-1.2-0.1-1.8-0.1H108h-0.1h-0.4h-0.1h-0.2
			c-0.3,0-0.7-0.1-1-0.1c-0.7-0.1-1.4-0.1-2.1-0.2l-0.6-0.1l-0.7-0.1c-0.5-0.1-0.9-0.2-1.4-0.2c-0.9-0.2-1.9-0.3-2.8-0.6
			c-0.9-0.3-1.8-0.5-2.7-0.8c-0.5-0.1-0.9-0.3-1.4-0.4c-0.5-0.2-0.9-0.4-1.4-0.6c-0.9-0.4-1.9-0.7-2.8-1.2s-1.8-1-2.8-1.5
			c-0.5-0.2-0.9-0.5-1.4-0.8c-0.4-0.3-0.9-0.6-1.4-0.9c-3.6-2.5-7.1-5.5-9.9-9.2c-2.9-3.7-5.2-8-6.8-12.6c-1.6-4.6-2.4-9.5-2.2-14.4
			v-3.3c0-0.5,0-1.2,0-1.6l-0.2-1.5l0-1.5c0-0.5-0.2-1-0.3-1.5L65,47.3c-0.1-0.3-0.1-0.5-0.2-0.8l-0.2-0.7c-0.3-1-0.6-2-0.9-2.9
			c-0.4-0.9-0.8-1.9-1.2-2.8c-0.5-0.9-1-1.8-1.4-2.7c-0.5-0.9-1.1-1.7-1.6-2.5c-2.3-3.2-5-6-8-8.3c-3-2.2-6.1-3.9-9.2-5
			c-0.7-0.3-1.5-0.5-2.3-0.8c-0.8-0.2-1.5-0.5-2.2-0.6s-1.5-0.3-2.1-0.4c-0.3-0.1-0.7-0.1-1-0.2c-0.3,0-0.7-0.1-1-0.1
			c-2.7-0.3-5.1-0.4-7-0.5c-3.9-0.2-6.1-0.3-6.1-0.3s2.2-0.1,6.1-0.3c2-0.1,4.3-0.2,7.1-0.2c0.3,0,0.7,0,1.1,0
			c0.4,0,0.7,0.1,1.1,0.1c0.7,0.1,1.5,0.2,2.3,0.2c0.8,0.1,1.6,0.3,2.4,0.4c0.8,0.2,1.6,0.3,2.5,0.6c3.3,0.9,6.8,2.4,10.2,4.5
			c3.4,2.1,6.7,4.9,9.5,8.2c0.7,0.9,1.5,1.7,2.1,2.6c0.6,0.9,1.3,1.9,1.9,2.8c0.5,1,1.1,2,1.6,3.1c0.5,1,0.9,2.1,1.4,3.2l0.3,0.8
			c0.1,0.3,0.2,0.6,0.3,0.8l0.5,1.7c0.2,0.6,0.4,1.1,0.5,1.7l0.4,1.8l0.3,1.8c0.1,0.6,0.1,1.1,0.2,1.7l0.2,3.8
			c0.2,4.1,1.3,8.1,2.9,11.7s3.8,6.8,6.3,9.6c2.5,2.7,5.5,4.8,8.4,6.5c0.4,0.2,0.7,0.4,1.1,0.6s0.7,0.4,1.1,0.5
			c0.7,0.3,1.5,0.6,2.2,0.9s1.5,0.5,2.2,0.7c0.4,0.1,0.7,0.2,1.1,0.3c0.4,0.1,0.7,0.1,1.1,0.2c0.7,0.1,1.4,0.3,2.1,0.4
			c0.6,0.1,1.2,0.1,1.8,0.2c0.3,0,0.6,0.1,0.9,0.1l0.4,0.1h0.5c0.7,0,1.4,0,2.1,0c0.3,0,0.7,0,1,0h0.2h0.1c0.1,0-0.6,0-0.3,0l0,0
			h0.1h0.5c0.6,0,1.3-0.1,1.8-0.1c1.2-0.1,2.3-0.1,3.2-0.1c3.9-0.2,6.1-0.3,6.1-0.3v13.1H119.6z"/>
		<path class="st4" d="M119.6,110.7c0,0-9.1-0.4-22.7-1c-3.4-0.1-7.1-0.3-11-0.5c-1,0-2-0.1-3-0.1h-0.8h-0.6h-0.4
			c-0.5,0-1-0.1-1.5-0.1h-0.4l-0.5-0.1l-1-0.2c-0.6-0.1-1.4-0.2-1.9-0.4c-0.6-0.2-1.2-0.4-1.8-0.5c-0.6-0.2-1.2-0.5-1.8-0.7
			c-1.2-0.4-2.3-1.1-3.4-1.7c-1.1-0.7-2.2-1.4-3.1-2.2c-1-0.8-1.9-1.7-2.8-2.6c-0.8-1-1.7-2-2.4-3c-0.8-1-1.4-2.2-2-3.4
			c-0.5-1.2-1.1-2.4-1.4-3.6l-0.3-0.9c-0.1-0.3-0.1-0.6-0.2-0.9c-0.1-0.6-0.3-1.3-0.4-1.9c-0.2-1.3-0.3-2.6-0.3-3.9v-3.4
			c-0.1-0.9-0.1-1.8-0.4-2.8c-0.2-1-0.5-1.9-0.8-2.9c-0.4-0.9-0.7-1.8-1.2-2.7c-0.4-0.9-1-1.7-1.6-2.5s-1.2-1.6-2-2.2
			c-0.7-0.7-1.5-1.3-2.2-1.9c-0.8-0.5-1.6-1.1-2.5-1.6c-0.8-0.5-1.7-0.8-2.6-1.2c-0.4-0.2-0.9-0.3-1.4-0.4c-0.5-0.1-0.9-0.3-1.4-0.4
			c-0.5-0.1-0.9-0.2-1.4-0.3s-0.9-0.1-1.4-0.2c-0.9-0.1-1.9-0.1-2.9-0.2c-3.9-0.2-7.6-0.3-11-0.5c-13.6-0.6-22.7-1-22.7-1
			s9.1-0.4,22.7-1c3.4-0.1,7.1-0.3,11-0.5c1,0,1.9-0.1,3-0.1c0.5,0,1.1,0,1.6,0c0.5,0.1,1.1,0.1,1.6,0.2c0.6,0,1.1,0.2,1.6,0.3
			s1.1,0.2,1.6,0.4c1.1,0.3,2.2,0.7,3.2,1.2c1.1,0.4,2.1,1,3.1,1.6c1,0.7,2,1.3,2.9,2.1c1,0.7,1.8,1.6,2.6,2.5
			c0.8,0.9,1.6,1.9,2.2,2.9c0.7,1,1.3,2.1,1.9,3.3c0.5,1.2,1,2.3,1.3,3.5c0.4,1.2,0.6,2.6,0.9,3.9l0.2,1.7v0.4v0.6l0.1,0.7
			c0.1,1,0.3,1.9,0.5,2.9c0.1,0.5,0.3,0.9,0.4,1.4c0.1,0.2,0.1,0.5,0.2,0.7l0.3,0.7c0.3,0.9,0.8,1.7,1.3,2.6c0.5,0.8,1,1.6,1.6,2.3
			c0.6,0.7,1.3,1.4,1.9,2c0.7,0.6,1.4,1.2,2.2,1.7c0.7,0.5,1.5,0.9,2.3,1.4c0.8,0.3,1.6,0.7,2.4,0.9c0.4,0.1,0.8,0.3,1.2,0.4
			c0.4,0.1,0.8,0.2,1.2,0.2c0.4,0.1,0.8,0.1,1.1,0.1l0.5,0.1h0.3h0.4c0.5,0,1,0,1.5,0h0.4l0,0c0.1,0-0.4,0-0.2,0h0.1h0.2h0.8
			c1,0,2-0.1,3-0.1c3.9-0.2,7.6-0.3,11-0.5c13.6-0.6,22.7-1,22.7-1v12.4H119.6z"/>
		<path class="st5" d="M119.6,109.3c0,0-9.1,0.4-22.7,1c-3.4,0.1-7.1,0.3-11,0.5c-1,0-2,0.1-3,0.1h-0.8h-0.6h-0.4
			c-0.5,0-1,0.1-1.5,0.1h-0.4l-0.5,0.1l-1,0.2c-0.6,0.1-1.4,0.2-1.9,0.4c-0.6,0.2-1.2,0.4-1.8,0.5c-0.6,0.2-1.2,0.5-1.8,0.7
			c-1.2,0.4-2.3,1.1-3.4,1.7c-1.1,0.7-2.2,1.4-3.1,2.2c-1,0.8-1.9,1.7-2.8,2.6c-0.8,1-1.7,2-2.4,3c-0.8,1-1.4,2.2-2,3.4
			c-0.5,1.2-1.1,2.4-1.4,3.6l-0.3,0.9c-0.1,0.3-0.1,0.6-0.2,0.9c-0.1,0.6-0.3,1.3-0.4,1.9c-0.2,1.3-0.3,2.6-0.3,3.9v3.4
			c-0.1,0.9-0.1,1.8-0.4,2.8c-0.2,1-0.5,1.9-0.8,2.9c-0.4,0.9-0.7,1.8-1.2,2.7c-0.4,0.9-1,1.7-1.6,2.5s-1.2,1.6-2,2.2
			c-0.7,0.7-1.5,1.3-2.2,1.9c-0.8,0.5-1.6,1.1-2.5,1.6c-0.8,0.5-1.7,0.8-2.6,1.2c-0.4,0.2-0.9,0.3-1.4,0.4c-0.5,0.1-0.9,0.3-1.4,0.4
			c-0.5,0.1-0.9,0.2-1.4,0.3s-0.9,0.1-1.4,0.2c-0.9,0.1-1.9,0.1-2.9,0.2c-3.9,0.2-7.6,0.3-11,0.5c-13.6,0.6-22.7,1-22.7,1
			s9.1,0.4,22.7,1c3.4,0.1,7.1,0.3,11,0.5c1,0,1.9,0.1,3,0.1c0.5,0,1.1,0,1.6,0c0.5-0.1,1.1-0.1,1.6-0.2c0.6,0,1.1-0.2,1.6-0.3
			s1.1-0.2,1.6-0.4c1.1-0.3,2.2-0.7,3.2-1.2c1.1-0.4,2.1-1,3.1-1.6c1-0.7,2-1.3,2.9-2.1c1-0.7,1.8-1.6,2.6-2.5
			c0.8-0.9,1.6-1.9,2.2-2.9c0.7-1,1.3-2.1,1.9-3.3c0.5-1.2,1-2.3,1.3-3.5c0.4-1.2,0.6-2.6,0.9-3.9l0.2-1.7v-0.4v-0.6l0.1-0.7
			c0.1-1,0.3-1.9,0.5-2.9c0.1-0.5,0.3-0.9,0.4-1.4c0.1-0.2,0.1-0.5,0.2-0.7l0.3-0.7c0.3-0.9,0.8-1.7,1.3-2.6c0.5-0.8,1-1.6,1.6-2.3
			c0.6-0.7,1.3-1.4,1.9-2c0.7-0.6,1.4-1.2,2.2-1.7c0.7-0.5,1.5-0.9,2.3-1.4c0.8-0.3,1.6-0.7,2.4-0.9c0.4-0.1,0.8-0.3,1.2-0.4
			c0.4-0.1,0.8-0.2,1.2-0.2c0.4-0.1,0.8-0.1,1.1-0.1l0.5-0.1h0.3h0.4c0.5,0,1,0,1.5,0h0.4l0,0c0.1,0-0.4,0-0.2,0h0.1h0.2h0.8
			c1,0,2,0.1,3,0.1c3.9,0.2,7.6,0.3,11,0.5c13.6,0.6,22.7,1,22.7,1v-12.4H119.6z"/>
		<path class="st2" d="M120,140.2c0,0-2.4,0-6.6,0c-1,0-2.2,0-3.5,0c-0.6,0-1.3,0-2,0h-0.5h-0.3H107l0,0c-0.3,0,0.3,0,0.3,0h-0.1
			c-0.4,0-0.7,0-1.1,0.1c-0.3,0-0.8,0-1.1,0.1c-0.2,0-0.5,0.1-0.7,0.1s-0.5,0-0.7,0.1c-0.3,0.1-0.6,0.1-0.9,0.2
			c-1.2,0.3-2.4,0.8-3.6,1.3c-1.2,0.7-2.4,1.4-3.5,2.4l-0.4,0.4l-0.4,0.4c-0.3,0.3-0.5,0.5-0.8,0.8c-0.5,0.6-1,1.2-1.4,1.9
			c-0.5,0.6-0.8,1.4-1.2,2.1c-0.2,0.4-0.3,0.8-0.5,1.1l-0.2,0.6l-0.2,0.6c-0.1,0.4-0.3,0.8-0.4,1.2s-0.2,0.8-0.3,1.3
			c-0.1,0.4-0.1,0.9-0.2,1.3l-0.1,0.7c0-0.1,0,0.3,0-0.2v0.1v0.1v0.2v0.4c0,0.5,0,1.2,0,1.6c0.1,0.4,0.1,0.8,0.1,1.2
			s0.2,0.9,0.2,1.3c0.1,0.5,0.2,0.9,0.3,1.4c0.5,1.8,1.3,3.6,2.4,5.2c2.1,3.3,5.5,5.9,9.3,7.3c1.9,0.7,3.9,1.1,6.1,1.2
			c2.4,0.1,4.7,0.2,7.1,0.3c2.3,0.1,4.7,0.2,7,0.3c0.6,0,1.1,0,1.7,0.1h0.2h0.1h0.1h0.2h0.4l0.8,0.1c0.5,0,1.2,0.2,1.8,0.3
			s1.3,0.2,1.9,0.4c2.4,0.6,4.5,1.6,6.5,2.8s3.7,2.7,5.2,4.3c2.9,3.3,4.8,7,5.6,10.7c0.2,0.9,0.4,1.8,0.5,2.7c0,0.4,0.1,0.9,0.1,1.3
			c0,0.4,0,0.9,0,1.3c0,0.9,0,1.6,0,2.4c0,0.8-0.1,1.5-0.1,2.2c-0.1,2.9-0.2,5.4-0.3,7.5c-0.2,4.2-0.3,6.6-0.3,6.6s-0.1-2.4-0.3-6.6
			c-0.1-2.1-0.2-4.6-0.3-7.5c0-0.7-0.1-1.5-0.1-2.2c0-0.8-0.1-1.6-0.2-2.3c0-0.4-0.1-0.8-0.1-1.2c-0.1-0.4-0.2-0.8-0.2-1.2
			c-0.1-0.8-0.4-1.6-0.6-2.4c-1-3.3-3.1-6.4-5.8-9.1c-1.4-1.3-3-2.4-4.8-3.3c-1.8-0.8-3.7-1.6-5.7-1.9c-0.5-0.1-1-0.1-1.5-0.2
			c-0.5-0.1-0.9-0.1-1.5-0.1c-0.5,0-1.1,0-1.6,0c-0.6,0-1.1,0-1.7,0.1c-2.3,0.1-4.6,0.2-7,0.3c-2.3,0.1-4.7,0.2-7.1,0.3
			c-2.6,0.1-5.4-0.2-8-0.9c-5.3-1.5-10.1-4.6-13.5-8.9c-1.7-2.1-3.1-4.5-4.1-7.1c-0.3-0.6-0.5-1.3-0.7-1.9c-0.2-0.7-0.4-1.3-0.5-2
			s-0.3-1.4-0.4-2.2c-0.1-0.6-0.1-1.1-0.2-1.7v-0.4v-0.2v-0.1v-0.1v-0.3v-1c0-0.7,0-1.3,0.1-2s0.1-1.3,0.2-2s0.2-1.3,0.4-1.9l0.2-1
			l0.3-0.9c0.2-0.6,0.4-1.2,0.6-1.8c0.5-1.2,1-2.4,1.6-3.4c0.6-1.1,1.3-2.1,2-3.1c0.4-0.5,0.8-1,1.1-1.4l0.6-0.7l0.6-0.6
			c1.6-1.8,3.5-3.1,5.3-4.4c1.9-1.1,3.8-2.1,5.8-2.8c0.5-0.2,1-0.3,1.4-0.5c0.5-0.2,1-0.3,1.6-0.4c0.5-0.1,1-0.2,1.6-0.3
			c0.4-0.1,0.8-0.1,1.1-0.2c0.4-0.1,0.7-0.1,1.1-0.1s0.9-0.1,1.3-0.1c0.7-0.1,1.3-0.1,2-0.2c1.3-0.1,2.4-0.2,3.4-0.3
			c4.2-0.4,6.5-0.6,6.5-0.6L120,140.2z"/>
		<path class="st3" d="M119.6,130.8c0,0-2.2-0.1-6.1-0.3c-1,0-2.1-0.1-3.2-0.1c-0.6,0-1.2-0.1-1.8-0.1H108h-0.1l0,0
			c-0.3,0,0.4,0,0.3,0h-0.1h-0.2c-0.3,0-0.7,0-1,0c-0.7,0-1.4,0-2.1,0h-0.5l-0.4,0.1c-0.3,0-0.6,0.1-0.9,0.1
			c-0.6,0.1-1.2,0.1-1.8,0.2c-0.7,0.1-1.4,0.3-2.1,0.4c-0.4,0.1-0.7,0.1-1.1,0.2c-0.4,0.1-0.7,0.2-1.1,0.3c-0.7,0.2-1.5,0.4-2.2,0.7
			s-1.5,0.6-2.2,0.9c-0.4,0.1-0.7,0.3-1.1,0.5s-0.7,0.4-1.1,0.6c-2.9,1.6-5.9,3.7-8.4,6.5c-2.5,2.7-4.7,5.9-6.3,9.6
			c-1.6,3.6-2.7,7.6-2.9,11.7l-0.3,3.4c-0.1,0.6-0.1,1.1-0.2,1.7l-0.3,1.8l-0.4,1.8c-0.1,0.6-0.3,1.2-0.5,1.7l-0.5,1.7
			c-0.1,0.3-0.2,0.6-0.3,0.8l-0.3,0.8c-0.5,1.1-0.9,2.2-1.4,3.2s-1.1,2-1.6,3.1c-0.6,1-1.3,1.9-1.9,2.8c-0.6,0.9-1.4,1.8-2.1,2.6
			c-2.9,3.4-6.2,6.1-9.5,8.2c-3.4,2-6.9,3.5-10.2,4.5c-0.8,0.3-1.7,0.4-2.5,0.6c-0.8,0.1-1.6,0.4-2.4,0.4c-0.8,0.1-1.5,0.2-2.3,0.2
			c-0.4,0-0.7,0.1-1.1,0.1c-0.4,0-0.7,0-1.1,0c-2.8,0.1-5.1-0.1-7.1-0.2c-3.9-0.2-6.1-0.3-6.1-0.3s2.2-0.1,6.1-0.3
			c2-0.1,4.4-0.2,7-0.5c0.3,0,0.7-0.1,1-0.1c0.3-0.1,0.7-0.1,1-0.2c0.7-0.1,1.4-0.3,2.1-0.4c0.7-0.1,1.5-0.4,2.2-0.6
			c0.7-0.3,1.5-0.4,2.3-0.8c3.1-1.2,6.2-2.9,9.2-5c2.9-2.2,5.7-5,8-8.3c0.5-0.8,1.2-1.6,1.6-2.5c0.5-0.9,1-1.8,1.4-2.7
			s0.8-1.9,1.2-2.8c0.4-0.9,0.6-1.9,0.9-2.9l0.2-0.7c0.1-0.2,0.1-0.5,0.2-0.8l0.3-1.5c0.1-0.5,0.2-1,0.3-1.5l0.1-1.5l0.2-1.5
			c0.1-0.5,0-1.1,0-1.6v-3.3c-0.2-4.9,0.6-9.8,2.2-14.4c1.6-4.6,3.9-8.9,6.8-12.6c2.8-3.7,6.3-6.8,9.9-9.2c0.5-0.3,0.9-0.6,1.4-0.9
			c0.4-0.3,0.9-0.6,1.4-0.8c0.9-0.5,1.9-1,2.8-1.5s1.9-0.8,2.8-1.2c0.5-0.2,0.9-0.4,1.4-0.6s0.9-0.3,1.4-0.4
			c0.9-0.3,1.8-0.5,2.7-0.8c0.9-0.2,1.9-0.4,2.8-0.6c0.5-0.1,0.9-0.2,1.4-0.2l0.7-0.1l0.6-0.1c0.7-0.1,1.4-0.1,2.1-0.2
			c0.3,0,0.7-0.1,1-0.1h0.2h0.1h0.4h0.1h0.5c0.6,0,1.3-0.1,1.8-0.1c1.2-0.1,2.3-0.1,3.2-0.1c3.9-0.2,6.1-0.3,6.1-0.3v13.5H119.6z"/>
	</g>
	<path class="st0" d="M122,141.8c0.7-0.3,1.3-0.6,1.9-1.2l31.7-30.6l-31.7-30.6c-0.6-0.5-1.2-0.9-1.9-1.2c-4.5-1.7-7.8,4.7-3.9,7.6
		c0.5,0.3,1,0.6,1.5,0.6c-2.6,0-4.7,2.1-4.7,4.7s2.1,4.7,4.7,4.7c-2.6,0-4.7,2.1-4.7,4.7s2.1,4.7,4.7,4.7c-2.6,0-4.7,2.1-4.7,4.7
		s2.1,4.7,4.7,4.7c-2.6,0-4.7,2.1-4.7,4.7s2.1,4.7,4.7,4.7c-2.6,0-4.7,2.1-4.7,4.7c0,2.6,2.1,4.7,4.7,4.7c-0.5,0-1,0.2-1.5,0.6
		C114.2,137,117.5,143.4,122,141.8z"/>
	<ellipse class="st6" cx="166.4" cy="110" rx="44.9" ry="42.1"/>
	<path class="st6" d="M167.7,64.3h76c51.5,0,101.6,16,143.6,45.7l0,0l0,0c-42,29.7-92.2,45.7-143.6,45.7h-76V64.3z"/>
	<path class="st1" d="M251.3,145.5h-83.6v-71h83.6c40,0,78.9,12.4,111.5,35.5c-16.3,11.5-34.2,20.4-53,26.4
		C291,142.4,271.3,145.5,251.3,145.5z"/>
	<path class="st3" d="M251.3,145.5h-83.6V110h195.1c-16.3,11.5-34.2,20.4-53,26.4C291,142.4,271.3,145.5,251.3,145.5z"/>
	<g>
		<g>
			<circle class="st0" cx="332.8" cy="106" r="6.1"/>
			<circle class="st0" cx="294.3" cy="106" r="6.1"/>
			<circle class="st0" cx="313.5" cy="114.3" r="6.1"/>
			<circle class="st0" cx="217.4" cy="106" r="6.1"/>
			<circle class="st0" cx="255.9" cy="106" r="6.1"/>
			<circle class="st0" cx="236.6" cy="114.3" r="6.1"/>
			<circle class="st0" cx="179" cy="106" r="6.1"/>
			<circle class="st0" cx="198.2" cy="114.3" r="6.1"/>
			<circle class="st0" cx="275.1" cy="114.3" r="6.1"/>
			<circle class="st0" cx="319.6" cy="98" r="3.8"/>
			<circle class="st0" cx="288.2" cy="119.1" r="3.8"/>
			<circle class="st0" cx="280.7" cy="99.9" r="3.8"/>
			<circle class="st0" cx="248.4" cy="119.1" r="3.8"/>
			<circle class="st0" cx="211.3" cy="118.2" r="3.8"/>
			<circle class="st0" cx="192.1" cy="101.1" r="3.8"/>
			<circle class="st0" cx="230.5" cy="101.8" r="3.8"/>
			<circle class="st0" cx="261.8" cy="118.2" r="3.8"/>
			<circle class="st0" cx="308.7" cy="103.5" r="2.5"/>
			<circle class="st0" cx="300.4" cy="116.6" r="2.5"/>
			<circle class="st0" cx="269" cy="103.5" r="2.5"/>
			<circle class="st0" cx="242.7" cy="103.6" r="2.5"/>
			<circle class="st0" cx="204.3" cy="103.6" r="2.5"/>
			<circle class="st0" cx="185.8" cy="119.1" r="2.5"/>
			<circle class="st0" cx="174.1" cy="117.6" r="2.2"/>
			<circle class="st0" cx="223.5" cy="116.6" r="2.5"/>
		</g>
	</g>
	<g>
		<circle class="st7" cx="136.5" cy="84.7" r="10.2"/>
		<circle class="st8" cx="136.5" cy="84.7" r="5"/>
	</g>
	<g>
		<circle class="st7" cx="136.5" cy="135.3" r="10.2"/>
		<circle class="st8" cx="136.5" cy="135.3" r="5"/>
	</g>
</g>
</svg>
