<?xml version="1.0" encoding="utf-8"?>
<!-- Generator: Adobe Illustrator 20.1.0, SVG Export Plug-In . SVG Version: 6.00 Build 0)  -->
<svg version="1.1" id="Layer_1" xmlns="http://www.w3.org/2000/svg" xmlns:xlink="http://www.w3.org/1999/xlink" x="0px" y="0px"
	 viewBox="0 0 543.5 220" style="enable-background:new 0 0 543.5 220;" xml:space="preserve">
<style type="text/css">
	.st0{fill:#9CB1BD;}
	.st1{fill:#C8E1EE;}
	.st2{fill:#293941;}
</style>
<g>
	<path class="st0" d="M540.8,102c0.7,4.3-18.6,17.4-31.7,18c-13.6,0.6-29.2,5.6-29.2,5.6s19.3-2,17.4,1.2s-29.2,16.8-67.2,21.2
		c-38,4.3-49.8,5.6-100.8,8.7c-51,3.1-117-19.3-117-19.3s-16.8,17.4-18.7,12.4c-1.9-4.3-13.1-19.9-13.1-19.9
		c-20.5-6.9-98.9-16.2-98.9-16.2C66,143,21.2,169.1,21.2,169.1s18.6-29.3,18-57.9c0-28.7-50.4-66.6-33.6-69.1s75.3,51.6,75.3,51.6
		s50.4-8.1,70.3-11.8c19.9-3.8,108.9-15.6,108.9-15.6s11.2-3.1,21.8-18.7c10.6-14.9-8.7-42.3,1.9-47.3c11.2-5,42.3,36.1,46,44.8
		c3.7,8.1,11.2,10.6,11.2,10.6C450.5,55.7,540.7,97.4,540.8,102z"/>
	<path class="st1" d="M509,120c-9.9,2.5-29.2,5.6-29.2,5.6s8.7-0.7,17.4,1.2c9.3,1.8-8.1,4.9-35.5,14.9
		c-26.7,9.9-100.1,16.8-133.1,14.9s-105.2-16.2-142.5-27.4C149.4,118,82.2,113.6,82.2,113.6c-13.7,18.7-43.6,44.2-43.6,44.2
		c16.8-44.8,38-49.8,38-49.8c37.3-11.2,108.2,18.1,154.9,19.3c46.7,1.3,37.4,14.9,117,13.7s73.4-24.8,102-23s90.8-13.1,90.8-13.1
		C536.9,108.6,519.5,117.3,509,120z"/>
	<circle class="st2" cx="498.4" cy="101.1" r="4.4"/>
	<g>
		<path class="st2" d="M420,137.8c11.2-18.6,2.5-45.4,2.5-45.4C421.2,114.8,420,137.9,420,137.8z"/>
		<path class="st2" d="M410,137.8c11.2-18.6,2.5-45.4,2.5-45.4C411.3,114.8,410,137.9,410,137.8z"/>
		<path class="st2" d="M400.7,137.8c11.2-18.6,2.5-45.4,2.5-45.4C401.9,114.8,400.7,137.9,400.7,137.8z"/>
	</g>
	<path class="st0" d="M378.9,122.3c23.1,1.8,18.7,9.3,18.7,9.3c-8.7,37.9-58.5,89.5-64.1,88.3s3.7-28,0-47.9
		c-3.7-19.9-14.9-40.4-14.9-40.4S355.9,121.1,378.9,122.3z"/>
</g>
</svg>
