<?xml version="1.0" encoding="utf-8"?>
<!-- Generator: Adobe Illustrator 20.1.0, SVG Export Plug-In . SVG Version: 6.00 Build 0)  -->
<svg version="1.1" id="Layer_1" xmlns="http://www.w3.org/2000/svg" xmlns:xlink="http://www.w3.org/1999/xlink" x="0px" y="0px"
	 viewBox="0 0 1022.8 220" style="enable-background:new 0 0 1022.8 220;" xml:space="preserve">
<style type="text/css">
	.st0{fill:#43989D;}
	.st1{fill:#57A4A7;}
	.st2{fill:#2E3F4A;}
	.st3{fill:#65BEBE;}
	.st4{fill:#B7B37F;}
	.st5{fill:#A7A374;}
</style>
<g>
	<g>
		<g>
			<path class="st0" d="M61.4,82.2H16.8c0,0-7.4-3.2-11.7-9.6c-17-41.4,30.8-68,30.8-68c5.3,24.5,12.7,47.8,25.5,65.9V82.2z"/>
		</g>
		<g>
			<path class="st1" d="M61.4,83.3H16.8c0,0-7.4,3.2-11.7,9.6c-17,41.4,30.8,68,30.8,68c5.3-24.5,12.7-47.8,25.5-65.9V83.3z"/>
		</g>
	</g>
	<g>
		<path class="st1" d="M674.7,150.1c-73.4,40.4-185,47.9-280.6,38.3c-86.1-8.5-188.1-66.9-213.6-76.5
			C156,101.3,77.4,100.2,77.4,100.2c-31.9,2.1-41.5-21.2-21.3-34c0,0,133.9-72.3,339-65.9c32.9,1.1,97.8,18.1,130.7,25.5
			c39.3,9.6,85-18,145.6,4.3c38.3,13.8,42.5,50,40.4,69.1C710.7,114.1,701.1,136.4,674.7,150.1z"/>
	</g>
	<g>
		<g>
			<circle class="st2" cx="662.9" cy="99.2" r="6.4"/>
		</g>
	</g>
	<g>
		<path class="st3" d="M310.1,168.3c27.6,9.6,57.4,17,85,20.2c86,8.5,185.9,3.2,258.2-27.6c-45.7-13.8-101-22.3-160.5-22.3
			C422.7,138.6,360,149.2,310.1,168.3z"/>
	</g>
	<g>
		<path class="st1" d="M459.9,137.4c-11.7,15.9-37.2,6.3-48.9,44.6c-5.3,13.8-25.5,26.6-35.1,31.9c-3.2,1.1-2.1,3.2,1.1,4.3
			c18.1,4.3,72.3,2.1,88.2-22.3c17.1-25.5,12.8-58.4,12.8-58.4C476.9,134.3,464.1,132.2,459.9,137.4z"/>
	</g>
	<g>
		<g>
			<path class="st3" d="M469.5,64.2c2.1,5.3,5.3,9.5,10.6,10.6c4.3,1.1,16,0,21.3-3.2c4.3-3.2,6.4-13.8,4.3-20.2
				c-1.1-4.2-4.2-7.4-8.5-8.5c-1.1-1-9.6-2.1-12.8-2.1c-4.3,0-10.7,4.2-12.8,8.5C468.4,53.5,467.3,58.8,469.5,64.2z"/>
		</g>
		<g>
			<path class="st3" d="M407.9,49.3c1,2.2,3.2,3.2,5.3,4.3c2.2,1,7.5,0,9.6-1.1c2.1-2.2,3.2-6.4,2.1-9.6c-1.1-2.2-2.2-3.2-4.3-4.3
				c-1.1,0-5.3-1.1-6.4-1.1c-3.2,0-5.3,2.2-6.4,4.3C406.8,44,405.7,47.2,407.9,49.3z"/>
		</g>
		<g>
			<path class="st3" d="M383.5,36.6c1,2.2,3.2,3.2,5.3,4.3c2.2,1,7.5,1,9.6-1.1c2.1-2.2,3.2-6.4,2.1-9.6c-1.1-2.2-2.2-3.2-4.3-4.3
				c-1.1,0-5.3-1.1-6.4-1.1c-3.2,0-5.3,2.2-6.4,4.3C382.3,31.2,382.3,34.4,383.5,36.6z"/>
		</g>
		<g>
			<path class="st3" d="M352.6,8.9c1.1,2.1,2.1,3.2,3.2,3.2c1.1,0,4.3,0,6.4-1.1c1.1,0,2.2-3.2,1.1-5.3c0-1-1-2.1-2.1-2.1
				c-1.1-1.1-3.2-1.1-4.3-1.1c-2.2,0-3.2,1-4.3,2.1C352.6,5.7,351.5,6.8,352.6,8.9z"/>
		</g>
		<g>
			<path class="st3" d="M320.7,15.2c1,2.2,3.1,4.3,5.3,4.3s7.5-1.1,9.6-3.2c2.2-2.2,2.2-6.4,1.1-9.6c-1.1-1.1-2.2-3.2-4.3-3.2
				c-1.1,0-5.3,0-6.4,0c-2.1,0-4.2,2.2-5.3,4.3C319.6,10,319.6,13.2,320.7,15.2z"/>
		</g>
		<g>
			<path class="st3" d="M364.3,43c1.1,2.1,2.1,3.2,3.2,3.2c1.1,0,4.3,0,6.4-1.1c1.1,0,2.2-3.2,1.1-5.3c0-1-1-2.1-2.1-2.1
				c-1.1-1.1-3.2-1.1-4.3-1.1c-2.2,0-3.2,1-4.3,2.1C363.2,40.8,363.2,41.8,364.3,43z"/>
		</g>
		<g>
			<path class="st3" d="M334.5,34.5c1.1,2.1,2.1,3.2,3.2,3.2c1.1,0,4.3,0,6.4-1.1c1.1,0,2.2-3.2,1.1-5.3c0-1-1-2.1-2.1-2.1
				c-1.1-1.1-3.2-1.1-4.3-1.1c-2.2,0-3.2,1-4.3,2.1C333.4,31.2,333.4,33.3,334.5,34.5z"/>
		</g>
		<g>
			<path class="st3" d="M286.7,17.5c1.1,2.1,2.1,3.2,3.2,3.2s4.3,0,6.4-1.1c1.1,0,2.2-3.2,1.1-5.3c0-1-1-2.1-2.1-2.1
				c-1.1-1.1-3.2-1.1-4.3-1.1c-2.2,0-3.2,1-4.3,2.1C285.6,14.2,285.6,15.3,286.7,17.5z"/>
		</g>
		<g>
			<path class="st3" d="M404.6,22.8c1.1,3.2,3.2,5.3,6.4,6.4s10.6,0,13.8-2.1c3.2-2.2,4.3-8.5,3.2-12.8c-1-2.1-3.2-4.2-5.3-5.3
				c-1.1,0-6.4-1.1-8.5-1.1c-3.2,0-7.4,3.2-8.5,5.3C404.6,16.3,403.6,19.5,404.6,22.8z"/>
		</g>
		<g>
			<path class="st3" d="M444,38.7c4.2,2.1,13.8,4.2,19.1,2.1c4.2-1,8.5-9.5,8.5-13.8c-1.1-7.5-7.5-9.6-14.9-12.8
				c-4.2-2.1-10.6-2.1-13.8,1.1S432.3,33.3,444,38.7z"/>
		</g>
		<g>
			<path class="st3" d="M521.6,59.9c4.2,2.1,13.8,4.2,19.1,2.1c4.2-1,8.5-9.5,8.5-13.8c-1.1-7.5-7.5-9.6-14.9-12.8
				c-4.2-2.1-10.6-2.1-13.8,1.1C517.3,38.7,508.8,53.5,521.6,59.9z"/>
		</g>
		<g>
			<path class="st3" d="M434.4,65.3c2.1,2.2,4.3,3.2,6.4,4.3c5.3,1,9.5,1,13.8-4.3c1-2.2,3.2-7.5,2.1-9.6c-1.1-3.2-4.2-5.3-8.5-6.4
				c-4.2,0-7.4,1.1-10.6,3.2S431.2,61,434.4,65.3z"/>
		</g>
		<g>
			<path class="st3" d="M564,46.1c2.1,1,4.3,2.1,6.4,2.1c4.2,0,8.5-1.1,10.6-6.4c1.1-2.1,1.1-7.4,0-8.5c-1.1-2.1-5.3-3.2-8.5-3.2
				c-4.2,0-6.4,1.1-8.5,4.3C561.9,37.6,560.9,42.9,564,46.1z"/>
		</g>
		<g>
			<path class="st3" d="M379,14.1c1.1,1.1,3.2,2.1,4.3,3.2c3.2,1.1,6.4,1.1,9.6-2.1c1-1.1,2.1-5.3,2.1-6.4c0-2.1-3.2-4.2-5.3-5.3
				c-3.1-1-5.3,0-7.4,1.1C380.2,6.8,378.1,10,379,14.1z"/>
		</g>
		<g>
			<path class="st3" d="M355.6,26.9c1.1,1.1,2.2,2.1,4.3,3.2c3.2,1.1,6.4,1.1,9.6-2.1c1-1.1,2.1-5.3,2.1-6.4c0-2.1-3.2-4.2-5.3-5.3
				c-3.1-1-5.3,0-7.4,1.1C356.8,18.5,354.7,22.7,355.6,26.9z"/>
		</g>
		<g>
			<path class="st3" d="M303.6,34.3c1.1,1.1,2.2,2.1,4.3,3.2c3.2,1.1,6.4,1.1,9.6-2.1c1-1.1,2.1-5.3,2.1-6.4c0-2.1-3.2-4.2-5.3-5.3
				c-3.1-1-5.3,0-7.4,1.1C304.7,25.9,302.6,30.2,303.6,34.3z"/>
		</g>
		<g>
			<path class="st3" d="M250.4,21.6c1.1,1.1,2.2,2.1,4.3,3.2c3.2,1.1,6.4,1.1,9.6-2.1c1-1.1,2.1-5.3,2.1-6.4c-1-2.1-3.2-4.2-5.3-5.3
				c-3.1-1-5.3,0-7.4,1.1C250.5,14.2,248.4,17.4,250.4,21.6z"/>
		</g>
		<g>
			<path class="st3" d="M223,27c0,1,1,2.1,2.1,2.1c1,1,3.2,1,5.3-1.1c0,0,1.1-2.1,1.1-3.2s-2.1-3.2-3.2-3.2s-3.2,0-4.3,1.1
				C222.9,23.8,220.8,27,223,27z"/>
		</g>
		<g>
			<path class="st3" d="M555.4,65.2c1.1,1.1,2.2,2.1,4.3,3.2c3.2,1.1,6.4,1.1,9.6-2.1c1-1.1,2.1-5.3,2.1-6.4c-1-2.1-3.2-4.2-5.3-5.3
				c-3.1-1-5.3,0-7.4,1.1C556.6,56.7,554.5,61,555.4,65.2z"/>
		</g>
		<g>
			<path class="st3" d="M600.2,39.7c1.1,1.1,2.1,3.2,3.2,3.2c2.1,1,5.3,2.1,7.4-1.1c0-1,1.1-4.2,1.1-5.3c0-2.2-2.2-4.3-4.3-4.3
				c-2.1,0-3.2,0-5.3,1.1C600.2,34.4,599.1,37.6,600.2,39.7z"/>
		</g>
		<g>
			<path class="st3" d="M483.2,29.1c2.1,2.1,3.2,4.2,5.3,5.3c4.2,3.2,8.5,4.3,13.8,1.1c2.2-1.1,4.3-4.3,4.3-6.4
				c-1-3.1-4.2-6.3-7.4-7.4c-4.2-1.1-7.4-1.1-10.6,0C484.3,22.7,480.1,27,483.2,29.1z"/>
		</g>
	</g>
	<g>
		<g>
			<path class="st4" d="M1024.2,102.4C917.9,96,818,90.7,712.9,90.7c-4.3,1-9.6,18-4.3,22.3C814.8,112,917.9,107.7,1024.2,102.4z"/>
		</g>
		<g>
			<g>
				<path class="st5" d="M862.7,109.8c2.1,0,5.3,0,7.4,0c-6.4-5.3-8.5-11.6-9.6-15.9c-1,0-3.2,0-5.3,0
					C856.3,98.2,858.4,103.5,862.7,109.8z"/>
			</g>
			<g>
				<path class="st5" d="M885,107.7c2.1,0,5.3,0,7.4,0c-5.3-5.3-7.4-9.5-8.5-13.8c-1,0-3.2,0-5.3,0
					C879.7,98.2,880.7,103.5,885,107.7z"/>
			</g>
			<g>
				<path class="st5" d="M929.6,105.6c2.1,0,4.3,0,6.4,0c-2.1-3.2-4.2-6.4-5.3-9.6c-1,0-3.2,0-5.3,0
					C926.4,99.2,927.5,103.5,929.6,105.6z"/>
			</g>
			<g>
				<path class="st5" d="M907.3,106.7c3.1,0,5.3,0,7.4,0c-4.2-4.3-6.3-8.5-7.4-11.7c-1,0-3.2,0-5.3,0
					C903,99.2,904.1,103.5,907.3,106.7z"/>
			</g>
			<g>
				<path class="st5" d="M959.4,105.6c-2.2-3.1-3.2-5.3-4.3-7.4c-2.1,0-4.3,0-6.4,0c0,2.1,1.1,4.2,3.2,7.4
					C954.1,105.6,956.2,105.6,959.4,105.6z"/>
			</g>
			<g>
				<path class="st5" d="M795.8,112c3.2,0,5.3,0,8.5,0c-9.6-7.4-12.8-14.9-12.8-20.2c-2.1,0-3.2,0-5.3,0
					C786.2,96,788.3,104.5,795.8,112z"/>
			</g>
			<g>
				<path class="st5" d="M727.7,113c3.2,0,6.4,0,9.6,0c-12.8-7.4-14.9-17-14.9-22.3c-2.1,0-3.2,0-5.3,0
					C717.1,96,719.2,104.5,727.7,113z"/>
			</g>
			<g>
				<path class="st5" d="M750,112c2.1,0,5.3,0,8.5,0c-11.7-7.5-13.8-16-13.8-21.3c-2.1,0-3.2,0-5.3,0C740.5,96,742.6,104.5,750,112z
					"/>
			</g>
			<g>
				<path class="st5" d="M840.3,109.9c2.1,0,5.3,0,7.4,0c-7.4-5.3-9.5-12.7-10.6-17c-2.1,0-3.2,0-5.3,0
					C832.9,97.1,835,103.5,840.3,109.9z"/>
			</g>
			<g>
				<path class="st5" d="M773.4,112c3.2,0,5.3,0,8.5,0c-10.6-7.5-13.8-16-13.8-21.3c-2.1,0-3.2,0-5.3,0
					C762.8,96,764.9,104.5,773.4,112z"/>
			</g>
			<g>
				<path class="st5" d="M818,109.9c3.2,0,5.3,0,8.5,0c-8.5-6.4-10.6-12.8-11.7-18.1c-2.1,0-3.2,0-5.3,0
					C809.5,97.1,811.7,104.5,818,109.9z"/>
			</g>
		</g>
	</g>
</g>
</svg>
