<?xml version="1.0" encoding="utf-8"?>
<!-- Generator: Adobe Illustrator 20.1.0, SVG Export Plug-In . SVG Version: 6.00 Build 0)  -->
<svg version="1.1" id="Layer_1" xmlns="http://www.w3.org/2000/svg" xmlns:xlink="http://www.w3.org/1999/xlink" x="0px" y="0px"
	 viewBox="0 0 455 220" style="enable-background:new 0 0 455 220;" xml:space="preserve">
<style type="text/css">
	.st0{fill:#34384B;}
	.st1{fill:#2E3242;}
	.st2{fill:#E8DACA;}
	.st3{fill:#24323B;}
	.st4{fill:#373B4F;}
</style>
<g>
	<g>
		<path class="st0" d="M203.1,56.5c0,0,13.2-2.5,17.7-10.6c5.5-10.3,1.9-36.1-4.2-41.3c-2.3-1.6-1.6-2.9-1-2.9
			c4.2-0.7,10-1.3,21.9,5.8c11.9,6.7,22.9,41.9,38,46.4L203.1,56.5z"/>
	</g>
	<g>
		<g>
			<g>
				<path class="st1" d="M3,156c-1,0.7-0.7,3.3,3.2,3.9c3.2,0.3,9,4.5,11.9,6.1c3.5,1.9,11.3,9.7,18.7,13.2
					c5.1,2.6,11.9-3.9,11.9-3.9l16.1-16.5C46.8,148.8,25.1,142.3,3,156z"/>
			</g>
		</g>
		<g>
			<g>
				<path class="st0" d="M70,219.5c-0.7,1-3.6,1-4.2-2.9c-0.7-3.2-4.9-9-6.8-11.6c-2.3-3.3-10.3-10.7-14.2-18.1
					C41.9,181.8,48,175,48,175l16.5-16.5C75.5,175.9,81.9,196.9,70,219.5z"/>
			</g>
		</g>
	</g>
	<g>
		<path class="st0" d="M419,144.4c0,0-1,5.5-4.5,6.1c-29.3,6.2-148.4,6.5-189.7,2.3c-38.7-3.8-70.7-8.7-101-7.7
			c-30,0.9-55.5,19-55.5,19c-7.4,4.6-13.2,3.9-12.6-4.8c0,0,12.6-29.4,52.6-61c42.6-33.9,80.7-45.5,146.2-45.8
			c73.9-0.7,138.8,33.5,149.4,51.6c6.1,10.3,7.7,21.6,7.7,21.6s12.3,2.5,13.6,10.6c1.7,8-10.6,7.7-10.6,7.7L419,144.4z"/>
	</g>
	<g>
		<path class="st2" d="M272.3,155.2c51.9,1.3,121.3-0.3,142.9-4.5c3.5-0.6,4.5-6.1,4.5-6.1s-3.9-0.6-5.2-0.6
			c-19.7-2-23.9-8.4-38.7-13.6c-16.4-5.8-42.6-2-74.5,14.5C293.3,150.4,279.1,154.6,272.3,155.2z"/>
	</g>
	<g>
		<path class="st2" d="M135.6,142.5c0.9,0.7,1.6,1.3,1.9,2.3c24.5,0.6,50.3,3.9,80.3,7.1c-0.4-0.3-0.7-0.3-1-0.3
			c-14.5-1.9-35.5-6.4-44.2-17.4c-12.3-15.1-25.8-18.3-40-17.7c-14.2,0.7-32.3,8.1-29.7,18.4C104.8,142.3,122.6,129.8,135.6,142.5z"
			/>
	</g>
	<g>
		<path class="st2" d="M358,92.6c16.5,3.9,26.5,17.8,25.2,23.6c-1.3,5.8-15.1,3.8-31.6,0.3c-16.4-3.5-29.6-12.9-29-14.5
			C324.6,96.5,341.7,89.4,358,92.6z"/>
	</g>
	<g>
		<g>
			<circle class="st3" cx="382" cy="117.5" r="2.9"/>
		</g>
	</g>
	<g>
		<path class="st4" d="M292.3,141.4c-13.5,10.7-21.3-1.3-39,18.1c-6.4,7.1-12.9,13.5-20,14.5c-1.9,0.3-1,2.6,1.3,3.2
			c10.9,3.9,34.8,7.7,49-2.6c11.9-8.4,16.1-21,19-29.7C304.3,140.7,297.2,138.1,292.3,141.4z"/>
	</g>
</g>
</svg>
