<?xml version="1.0" encoding="utf-8"?>
<!-- Generator: Adobe Illustrator 20.1.0, SVG Export Plug-In . SVG Version: 6.00 Build 0)  -->
<svg version="1.1" id="Layer_1" xmlns="http://www.w3.org/2000/svg" xmlns:xlink="http://www.w3.org/1999/xlink" x="0px" y="0px"
	 viewBox="0 0 114.2 220" style="enable-background:new 0 0 114.2 220;" xml:space="preserve">
<style type="text/css">
	.st0{fill:#F37C29;}
	.st1{fill:#2F3234;}
	.st2{fill:#E8E8E6;}
	.st3{fill:#B86027;}
	.st4{fill:#6B6F70;}
	.st5{fill:#ED9F2E;}
</style>
<g>
	<path class="st0" d="M105,60.9c-2.7,8.1,0.4,26.2-6.3,36.3c0,0-0.6-26.9-6.3-36C90.6,58.5,106,57.9,105,60.9z"/>
	<path class="st1" d="M112.3,45.5c-0.1-6.8-9.9-37.2-24.4-42.3C69.4-3.2,45.3,5.8,37.8,8.6c-0.6,0.2-1.3,0.4-1.9,0.7l0,0l0,0
		C16.1,17.3,1,60.4,1,112.3C1,170,19.6,216.7,42.6,216.7c23,0,41.6-46.7,41.6-104.4c0-25.9-3.8-49.6-10-67.9
		c6.3,6.6,13.3,13.4,18,16.7C102.9,68.7,112.5,54.9,112.3,45.5z"/>
	<path class="st2" d="M26,152.4c-3.2,2.1,10.4,45.2,16.7,64.3c23-0.1,41.5-46.8,41.5-104.4c0-25.9-3.8-49.6-10-67.9
		c0.8,0.9,1.7,1.7,2.5,2.6c0,0-0.5-11.5,0.9-12.3c1.7-1,10.2,4.9,14.4,2.8c4.8-5.9,1.5-27.1-13.2-30.1C71.7,5.9,63.5,7,51.1,15.3
		c0,0,17.7,1.9,21.7,5.3c-5.7-3.7-29.6,1.5-35.3,5.3C26,33.5,23.1,109.4,22.8,115c-0.3,5.6,8.6,14.2,8.7,21.5
		C31.5,140,30.6,149.2,26,152.4z"/>
	<path class="st3" d="M38.1,213.5c-1.3,0.6-5.1,1.3-2.4,4c2.7,2.7,16.5,1,21.2,0s8.8-1.7,13.5,0c4.7,1.7,0.8-3.5,0-4
		c-2.7-1.7-8.8-2.3-12.8-1.7C53.7,212.4,42.6,211.5,38.1,213.5z"/>
	<circle class="st4" cx="103.4" cy="44.8" r="2.9"/>
	<path class="st1" d="M18.2,105.1c3.2,4,21.1,29.4,20.5,39.8c-0.3,6.1,7.9,13.3,8.4,0c1.4-43.3-18.4-56.7-21.4-71.1L18.2,105.1z"/>
	<path class="st5" d="M79,7.4C71.7,5.9,63.5,7,51.1,15.3c0,0,17.7,1.9,21.7,5.3c-3.9-2.5-16.4-0.8-25.7,1.7c0,0.2,0,0.5,0,0.7
		c0,19.6,13.9,35.6,31.3,35.9c-1.2-5.1-2.6-10-4.1-14.5c0.8,0.9,1.7,1.7,2.5,2.6c0,0-0.5-11.5,0.9-12.3c1.7-1,10.2,4.9,14.4,2.8
		C96.9,31.7,93.6,10.5,79,7.4z"/>
</g>
</svg>
