<?xml version="1.0" encoding="utf-8"?>
<!-- Generator: Adobe Illustrator 20.1.0, SVG Export Plug-In . SVG Version: 6.00 Build 0)  -->
<svg version="1.1" id="Layer_1" xmlns="http://www.w3.org/2000/svg" xmlns:xlink="http://www.w3.org/1999/xlink" x="0px" y="0px"
	 viewBox="0 0 455 220" style="enable-background:new 0 0 455 220;" xml:space="preserve">
<style type="text/css">
	.st0{fill:#FFD200;}
	.st1{fill:#71CEF4;}
	.st2{fill:#80A7B3;}
	.st3{fill:#153E47;}
	.st4{fill:#668287;}
	.st5{fill:#FFFFFF;}
	.st6{fill:#68B3C6;}
	.st7{fill:#00ACED;}
</style>
<g>
	<g>
		<path class="st0" d="M144.5,47.1c-4.9,0-11,0-15.9-1.2c-4.9,0-19.6,0-20.8,6.1c1.3,0,1.3,1.3,2.5,2.5c-1.2,3.7-3.6,9.8,2.5,9.8
			c3.7,0,8.6-5,13.5-2.5c-1.2,2.4,1.3,4.9,3.7,4.9c2.4,0,3.6-2.5,6.1-3.7c3.7-3.6,7.4-6.1,8.6-11"/>
		<path class="st0" d="M258.7,182c-2.4,6.1-4.9,13.5-6.1,19.6c0,7.4,2.4,4.9,4.9,0c2.5,6.1,1.2,13.5,8.6,18.4
			c2.4-1.2,1.2-2.4,1.2-4.9c0-2.4,0-2.4,1.2-4.9c2.4-3.6,1.2-7.3,1.2-11C268.5,193,266.1,183.2,258.7,182"/>
		<path class="st1" d="M273.5,99.8c2.4,4.9,4.9,9.8,6.1,15.9c1.2,8.6,0,18.4-2.5,27c-2.4,11-3.6,22.1-6.1,33.1
			c0,3.7-2.5,6.1-2.5,9.8c0,1.3,0,6.2-1.2,7.4c-1.2,1.2-9.8-2.5-11-3.7c-2.4-2.5-1.2-9.8-1.2-13.5c0-13.5,1.2-28.2,1.2-41.7
			c0-3.7-2.5-6.1-3.7-9.8c-2.5-4.9-1.2-9.8,0-15.9c1.2-7.3,2.4-9.8,9.8-9.8c4.9,0,6.1-1.2,9.8,2.5"/>
		<path class="st0" d="M248.8,65.6c2.4-7.4-6.2-12.3-12.3-13.5c-7.4-2.5-22.1,1.2-28.2,4.9c-14.7,6.2-28.2,17.2-44.1,22.1
			c-4.9,1.2-9.8,2.4-13.5,6.1c-3.7,6.1-3.7,14.7,1.2,20.8c7.4,11.1,19.7,14.7,30.7,8.6c6.1-3.7,13.5-4.9,18.4-9.8
			c7.4-4.9,14.7-11,22.1-15.9c4.9-3.7,8.6-4.9,13.5-7.4c1.3,0,1.3-1.3,2.5-2.5"/>
		<path class="st1" d="M268.6,98.7c-2.5,8.6-12.3,17.1-18.4,24.5c-7.4,8.5-18.4,11-28.2,15.9c-17.2,7.3-36.8,15.9-51.5,1.2
			c-7.4-7.4-11.1-17.2-12.3-28.2c0-8.6,0-13.5,9.8-14.7c13.5-2.4,25.8-6.1,36.8-14.7c6.1-4.9,13.4-9.8,20.8-14.7
			c9.9-6.1,23.3,3.7,30.7,9.8c3.6,3.7,4.9,6.1,6.1,9.8c1.2,2.5,2.4,7.4,4.9,8.6"/>
		<path class="st1" d="M235.5,64.3c-8.6-3.7-17.2-6.2-28.2-7.4c-12.3-1.2-24.5-7.3-38-9.8c-8.6-2.5-18.4-3.7-27,0
			c-2.5,1.2-8.6,2.4-8.6,6.1s6.1,6.2,8.6,7.4c4.9,1.3,13.5,1.3,18.4,2.5c11,2.4,23.3,2.5,33.1,6.1s22.1,15.9,33.1,11
			c3.6-1.2,4.9-4.9,6.1-8.6"/>
		<path class="st0" d="M72.5,101.2c0-3.7-4.9-6.1-7.4-8.6C60.2,88.9,54,84,47.9,80.3c-4.9-2.4-9.8-6.1-15.9-9.8
			c-4.9-3.6-9.8-8.5-14.7-11c0,2.4-4.9,4.9-7.4,6.1c-2.5,0-4.9,0-7.4,0C6.2,74.2,7.4,84-1.2,90.1c17.2,1.2,34.3,1.2,51.5,6.1
			c3.6,1.2,8.5,2.4,11,4.9c2.5,1.2,6.1,4.9,8.6,1.2"/>
		<path class="st0" d="M85.8,151.3c-1.2,8.6-8.6,8.6-16,12.2c-7.4,3.7-14.7,7.4-22.1,12.3c-3.6,2.5-7.3,6.2-11,7.4
			c-4.9-6.2-19.6-8.6-27-7.4c3.7-3.7,8.6-9.8,7.4-14.7c0-3.7-1.2-11-4.9-13.5c18.4,2.5,35.6-4.9,54-4.9
			C72.3,143.9,88.3,143.9,85.8,151.3"/>
		<path class="st2" d="M182.8,119.3c-7.3-4.9-13.4-14.7-20.8-18.4c-6.1-2.4-13.5,0-19.6,2.5c-11.1,3.7-24.6,4.9-35.6,4.9
			c-8.6,0-14.7-1.2-23.3-4.9c-3.6-1.2-7.3-4.9-11-6.1c-6.1-2.4-4.9,1.3-8.6,2.5c1.2,7.3,14.7,12.2,20.8,14.7
			c9.8,4.9,20.9,9.8,31.9,12.3c3.6,1.2,19.6,1.2,20.8,4.9s-11,11.1-13.5,12.3c-9.8,4.9-20.9,3.7-31.9,3.7c-1.3,0-6.2-1.2-7.4,0
			c-3.7,2.4,1.2,4.9,3.7,6.1c6.1,3.6,13.4,4.9,20.8,6.1c13.5,2.5,27,3.7,40.5,3.7c15.9,0,40.4-1.3,49-17.2
			C203.5,137.8,190.1,125.6,182.8,119.3z"/>
		<path class="st3" d="M310.2,66.7c2.4-3.7,6.1-6.1,9.8-9.8c1.2-1.2,2.4-4.9,4.9-4.9c9.8,0,4.9,11.1,2.5,16
			c-2.5,4.9-9.8,13.4-16,9.8c-4.9-2.5-3.7-7.4-1.2-12.3"/>
		<path class="st2" d="M248.8,76.5c-6.1-4.9-9.8-9.8-6.1-17.2c3.7-6.1,7.4-9.8,12.3-14.7c7.4-4.9,9.8-4.9,17.2-6.1
			c2.4,0,3.7-1.2,4.9,0c3.7,0,6.1,2.5,9.8,3.7c4.9,2.5,8.6,4.9,13.5,7.4c4.9,3.7,11,8.6,14.7,14.7c2.5,6.1-1.2,19.6-4.9,24.5
			c-4.9,7.3-15.9,12.2-24.5,14.7c-17.2,2.4-45.4-11.1-40.5-31.9"/>
		<path class="st4" d="M306.6,59.5c1.2,4.9,1.2,11,0,15.9c-1.2,3.7-2.4,4.9-4.9,7.4s-8.6,7.4-12.3,8.6s-8.6,0-12.3,1.2
			c-3.7,0-6.1,1.2-9.8,1.2c-4.9,0-9.8-4.9-14.7-3.7c0,4.9,14.7,12.3,18.4,13.5c8.5,2.4,17.1,0,25.7-3.7c8.6-4.9,14.7-9.8,17.2-20.8
			c1.2-3.7,2.5-8.6,0-12.3C313.9,63.1,307.7,56.9,306.6,59.5C305.3,58.2,305.3,58.2,306.6,59.5c-1.3-0.1-1.3-0.1-1.3,1.1"/>
		<path class="st3" d="M294.3,64.3c8.6,8.5,19.6,13.4,19.6,25.7c0,4.9-1.2,9.8-4.9,12.3c-6.2,2.4-19.6,3.7-22.1-3.7
			c-1.2-7.3,1.3-12.2-6.1-15.9c-4.9-2.4-9.8-3.6-13.5-6.1c-4.9-2.5-8.6-4.9-7.4-12.3C262.4,44.7,286.9,55.7,294.3,64.3z"/>
		<path class="st1" d="M293.1,99.8c-2.5-1.2-2.5-2.4-2.5-2.4c0-1.2,0-3.7,0-4.9c0-4.9,0-9.8-7.3-13.5c-1.3,0-2.5-1.2-2.5-1.2
			l-6.1-2.5c-1.2-1.3-3.7-1.3-4.9-2.5c-4.9-3.7-7.3-4.9-6.1-8.6c0-3.6,1.2-4.9,3.7-6.1c2.5-1.3,8.6-1.3,13.5,1.2
			c3.6,1.3,8.5,4.9,11,7.4c2.4,2.4,3.6,3.7,6.1,4.9c6.1,6.1,12.3,11,13.5,18.4c0,3.7,0,7.4-3.7,8.6S296.8,101,293.1,99.8L293.1,99.8
			z"/>
		<path class="st5" d="M300.4,74.1c-2.4-1.2-2.4-2.5-4.9-3.7s-4.9,0-8.6,0c-2.4,0-13.5-2.5-14.7,1.2C273.4,71.6,298,75.3,300.4,74.1
			z"/>
		<path class="st5" d="M286.9,77.8c1.2,0,22.1,1.2,19.6,5c0,1.2-9.8-1.3-11-2.5C293,80.3,289.4,80.3,286.9,77.8
			C286.9,79,286.9,79,286.9,77.8"/>
		<path class="st4" d="M186.4,128c-2.5,6.2-8.6,9.8-13.6,13.5c-8.5,6.1-15.9,9.8-25.7,13.5c-7.3,2.5-13.4,3.7-20.8,2.5
			c-4.9,0-11,0-15.9,0c-2.4,0-4.9-1.2-6.1-1.2c1.2,3.7,9.8,4.9,13.5,4.9c7.3,1.2,14.7,3.7,20.8,3.7c11-1.3,23.3-3.7,33.1-7.4
			c6.1-2.5,16-7.4,18.4-12.3s2.4-15.9-2.5-18.4C186.4,128,186.4,128,186.4,128"/>
		<path class="st6" d="M198.6,134.2c3.7-1.3,8.6-1.3,13.4-2.4c6.2-1.2,11.1-2.4,17.2-4.9c6.1-2.5,12.3-8.6,18.4-8.6
			c0,4.9-7.3,7.3-11,9.8c-4.9,3.7-9.8,7.3-15.9,9.8c-4.9,2.5-9.8,3.7-14.7,3.7C199.8,140.3,198.6,139.1,198.6,134.2"/>
		<path class="st6" d="M273.4,108.4c1.3,4.9,3.7,8.6,2.5,14.7c-1.3,9.8-4.9,18.4-7.4,28.2c-1.2,4.9-9.8,34.4-3.7,35.6
			c2.4-6.1,3.7-12.3,4.9-18.4c1.2-7.3,3.7-14.7,4.9-20.8c1.3-9.9,7.4-27-1.2-35.6"/>
		<path class="st6" d="M142.2,58.1c2.5-2.4,7.4-1.2,9.9-1.2c6.1,0,13.5,1.2,19.6,1.2c4.9,0,17.1,1.3,19.6,7.4
			c-8.6,0-18.4-3.7-27-4.9c-3.7,0-25.8,3.7-23.3-3.7C141,58.1,141,58.1,142.2,58.1"/>
	</g>
	
		<ellipse transform="matrix(0.3946 -0.9188 0.9188 0.3946 100.3409 211.5316)" class="st7" cx="210.7" cy="29.6" rx="6.1" ry="6.1"/>
	<ellipse transform="matrix(0.3943 -0.919 0.919 0.3943 169.3627 349.2055)" class="st7" cx="349.6" cy="46.1" rx="7.4" ry="7.4"/>
	
		<ellipse transform="matrix(0.3955 -0.9185 0.9185 0.3955 152.6738 256.5878)" class="st7" cx="271.3" cy="12.3" rx="12.3" ry="12.3"/>
	<ellipse transform="matrix(0.3955 -0.9185 0.9185 0.3955 198.2733 314.4247)" class="st7" cx="338" cy="6.6" rx="3.7" ry="3.7"/>
	
		<ellipse transform="matrix(0.3961 -0.9182 0.9182 0.3961 176.9456 304.8159)" class="st7" cx="320.2" cy="17.9" rx="4.9" ry="4.9"/>
	<ellipse transform="matrix(0.3947 -0.9188 0.9188 0.3947 152.0296 310.7528)" class="st7" cx="311.9" cy="40" rx="4.9" ry="4.9"/>
</g>
</svg>
