<?xml version="1.0" encoding="utf-8"?>
<!-- Generator: Adobe Illustrator 20.1.0, SVG Export Plug-In . SVG Version: 6.00 Build 0)  -->
<svg version="1.1" id="Layer_1" xmlns="http://www.w3.org/2000/svg" xmlns:xlink="http://www.w3.org/1999/xlink" x="0px" y="0px"
	 viewBox="0 0 455 220" style="enable-background:new 0 0 455 220;" xml:space="preserve">
<style type="text/css">
	.st0{fill:#001539;}
	.st1{fill:#FAC7B3;}
	.st2{fill:#FFDFBE;}
	.st3{fill:#F6921E;}
	.st4{fill:url(#SVGID_1_);}
</style>
<g>
	<g>
		<g>
			<g>
				
					<ellipse transform="matrix(0.1525 -0.9883 0.9883 0.1525 235.1566 503.8269)" class="st0" cx="411.3" cy="114.8" rx="9" ry="9"/>
			</g>
		</g>
	</g>
	<path class="st1" d="M159.3,106.2l229.6,45h36c0,0,18,18,18,31.5s-9,18-31.5,27c-22.6,4.5-81.1,9-126.1,9s-63-18-67.5-22.5
		c-9-4.5-22.5-4.5-45-9s-31.5-18-40.5-22.5c-9-9-18-4.5-45-9c-22.5-4.5-27-18-36-22.5s-27-4.5-40.5-9c-18,0-4.5-18,0-18
		s9-13.5,9-13.5L159.3,106.2z"/>
	<path class="st2" d="M294.3,25.2c-9-4.5-22.5-4.5-36-9s-22.5-9-36-13.5s-31.5,0-45,0c-13.5,4.5-27,0-40.5,0s-31.5,9-45,13.5
		c-18,4.5-31.5,13.5-40.5,22.5c-18,18-27,36-27,58.5c0,13.5,36,13.5,36,13.5s0,0,18,9s40.5,4.5,40.5,4.5s0,9,18,13.5s40.5,0,40.5,0
		s0,9,13.5,13.5s31.5,4.5,31.5,4.5s0,13.5,36,27c36.1,13.5,49.6,13.5,108.1,4.5c63-4.5,67.5-27,58.5-36c-13.5-9-13.5-40.5-13.5-54
		c-4.5-18-13.5-45-27-54s-31.5-9-49.5-9c-13.5,0-27,0-36-4.5C294.4,29.7,289.9,29.7,294.3,25.2z"/>
	<path class="st3" d="M411.5,173.7c0,0,4.5,0,4.5,4.5c0,0,0,4.5-4.5,4.5c0,0-4.5,0-4.5-4.5C407,178.2,407,173.7,411.5,173.7z
		 M402.5,151.2c0,4.5,4.5,4.5,4.5,4.5c4.5,0,4.5,0,4.5-4.5s-4.5-4.5-4.5-4.5L402.5,151.2z M371,173.7c0,4.5,4.5,9,9,9s9-4.5,9-9
		s-4.5-9-9-9C380,164.7,375.5,169.2,371,173.7z M380,137.7c0,4.5,0,4.5,4.5,4.5c0,0,4.5,0,4.5-4.5s0-4.5-4.5-4.5
		S375.5,137.7,380,137.7z M389,115.2c0,4.5,4.5,9,9,9s9-4.5,9-9s-4.5-9-9-9S389,110.7,389,115.2z M366.5,124.2c0,0,0,4.5,4.5,4.5
		s4.5,0,4.5-4.5c0,0,0-4.5-4.5-4.5S366.5,124.2,366.5,124.2z M343.9,151.2c0,4.5,0,9,4.5,9c0,0,4.5-4.5,4.5-9s0-9-4.5-9
		S339.4,146.7,343.9,151.2z M348.4,178.2l4.5,4.5c0,0,4.5,0,4.5-4.5c0,0,0-4.5-4.5-4.5S343.9,178.2,348.4,178.2z M325.9,173.7
		c-4.5,4.5,0,9,0,9S330.4,178.2,325.9,173.7L325.9,173.7C321.4,173.7,321.4,173.7,325.9,173.7z M334.9,200.7c0,4.5,0,9,4.5,9
		c0,0,4.5-4.5,4.5-9s0-9-4.5-9S334.9,196.2,334.9,200.7z M285.4,200.7c0,4.5,4.5,9,9,9s9-4.5,9-9s-4.5-9-9-9
		S285.4,196.3,285.4,200.7z M289.9,169.2c0,0,0,4.5,4.5,4.5c0,0,4.5,0,4.5-4.5c0,0,0-4.5-4.5-4.5
		C294.4,164.7,289.9,164.7,289.9,169.2z M253.9,164.7c0,0,0,4.5,4.5,4.5c4.5,0,4.5,0,4.5-4.5c0,0,0-4.5-4.5-4.5
		C253.9,160.2,253.9,160.2,253.9,164.7z M253.9,182.7c0,0,4.5,4.5,9,4.5s9,0,9-4.5c0,0-4.5-4.5-9-4.5S253.9,182.7,253.9,182.7z
		 M226.9,182.7c0,4.5,4.5,9,4.5,9s4.5-4.5,4.5-9s0-9-4.5-9S226.9,178.2,226.9,182.7z M231.4,137.7c0,0,4.5,4.5,9,4.5s9,0,9-4.5
		c0,0-4.5-4.5-9-4.5S231.4,137.7,231.4,137.7z M339.4,110.7c0,0,0,4.5,4.5,4.5c0,0,4.5,0,4.5-4.5c0,0,0-4.5-4.5-4.5L339.4,110.7z
		 M362,92.7c0,4.5,0,4.5,4.5,4.5c0,0,4.5,0,4.5-4.5s0-4.5-4.5-4.5C366.5,88.2,362,88.2,362,92.7z M380,74.7c0,9,0,9,0,9
		S384.5,79.2,380,74.7C384.5,79.2,384.5,74.7,380,74.7C380,74.7,380,79.2,380,74.7z M357.5,61.2c-4.6,4.5-4.6,9,0,4.5
		C357.5,65.7,362,65.7,357.5,61.2C362,61.2,357.5,61.2,357.5,61.2C352.9,61.2,352.9,61.2,357.5,61.2z M334.9,83.7
		c0,4.5,4.5,4.5,4.5,4.5c4.5,0,4.5,0,4.5-4.5s-4.5-4.5-4.5-4.5C334.9,79.2,334.9,83.7,334.9,83.7z M325.9,61.2
		c0,4.5,4.5,4.5,4.5,4.5s4.5,0,4.5-4.5s0-4.5-4.5-4.5S325.9,61.2,325.9,61.2z M199.9,160.2c0,4.5,4.5,9,9,9s9-4.5,9-9s-4.5-9-9-9
		S199.9,151.2,199.9,160.2z M204.4,124.2c0,0,0,4.5,4.5,4.5c0,0,4.5,0,4.5-4.5c0,0,0-4.5-4.5-4.5L204.4,124.2z M217.9,101.7
		c0,4.5,0,4.5,4.5,4.5c0,0,4.5,0,4.5-4.5s0-4.5-4.5-4.5S213.4,101.7,217.9,101.7z M195.4,88.2c0,0,4.5,4.5,9,4.5s9,0,9-4.5
		c0,0-4.5-4.5-9-4.5S195.4,83.7,195.4,88.2z M172.9,115.2c0,4.5,4.5,9,4.5,9s4.5-4.5,4.5-9s0-9-4.5-9
		C177.4,106.2,172.9,110.7,172.9,115.2z M172.9,137.7c0,4.5,0,9,4.5,9s4.5-4.5,4.5-9s0-9-4.5-9C177.4,128.7,172.9,133.2,172.9,137.7
		z M150.4,133.2c0,4.5,4.5,4.5,4.5,4.5s4.5,0,4.5-4.5s0-4.5-4.5-4.5S145.9,133.2,150.4,133.2z M150.4,151.2c-4.5,4.5,0,9,0,9
		C154.9,160.2,154.9,155.7,150.4,151.2C154.9,151.2,154.9,151.2,150.4,151.2C150.4,151.2,145.9,151.2,150.4,151.2z M118.8,128.7
		c0,4.5,0,4.5,4.5,4.5c0,0,4.5,0,4.5-4.5s0-4.5-4.5-4.5C123.3,124.2,118.8,124.2,118.8,128.7z M96.3,137.7c0,0,0,4.5,4.5,4.5
		c0,0,4.5,0,4.5-4.5c0,0,0-4.5-4.5-4.5L96.3,137.7z M87.3,115.2c0,0,4.5,4.5,9,4.5s9,0,9-4.5c0,0-4.5-4.5-9-4.5
		S91.8,110.7,87.3,115.2z M73.8,124.2c0,0,0,4.5,4.5,4.5s4.5,0,4.5-4.5c0,0,0-4.5-4.5-4.5S73.8,124.2,73.8,124.2z M51.3,101.7
		c0,0,4.5,4.5,9,4.5s9-4.5,9-4.5s-4.5-4.5-9-4.5S51.3,101.7,51.3,101.7z M37.8,119.7c0,4.5,0,4.5,4.5,4.5s4.5,0,4.5-4.5
		s-4.5-4.5-4.5-4.5C37.8,115.2,37.8,115.2,37.8,119.7z M28.8,101.7c0,4.5,0,4.5,4.5,4.5s4.5-4.5,4.5-4.5c0-4.5,0-4.5-4.5-4.5
		S28.8,97.2,28.8,101.7z M42.3,79.2c0,0,0,4.5,4.5,4.5c0,0,4.5,0,4.5-4.5c0,0,0-4.5-4.5-4.5S42.3,79.2,42.3,79.2z M60.3,65.7
		c0,0,4.5,4.5,9,4.5s9,0,9-4.5c0,0-4.5-4.5-9-4.5S60.3,61.2,60.3,65.7z M51.3,52.2c0,0,0,4.5,4.5,4.5s4.5,0,4.5-4.5
		c0,0,0-4.5-4.5-4.5S51.3,47.7,51.3,52.2z M87.3,83.7c0,0,0,4.5,4.5,4.5c0,0,4.5,0,4.5-4.5c0,0,0-4.5-4.5-4.5S82.8,83.7,87.3,83.7z
		 M109.8,97.2c0,4.5,4.5,9,9,9s9-4.5,9-9s-4.5-9-9-9C118.8,88.2,114.3,88.2,109.8,97.2z M145.9,101.7c0,0,0,4.5,4.5,4.5
		c0,0,4.5,0,4.5-4.5c0,0,0-4.5-4.5-4.5S145.9,97.2,145.9,101.7z M163.9,74.7c0,4.5,4.5,9,9,9s9-4.5,9-9s-4.5-9-9-9
		S163.9,70.2,163.9,74.7z M136.8,61.2c0,0,0,4.5,4.5,4.5c0,0,4.5,0,4.5-4.5c0,0,0-4.5-4.5-4.5C141.3,56.7,136.8,61.2,136.8,61.2z
		 M109.8,52.2c0,0,4.5,4.5,9,4.5s9,0,9-4.5c0,0-4.5-4.5-9-4.5S109.8,52.2,109.8,52.2z M96.3,34.2c0,0,4.5,4.5,9,4.5s9,0,9-4.5
		c0,0-4.5-4.5-9-4.5S96.3,29.7,96.3,34.2z M78.3,52.2c0,4.5,0,4.5,4.5,4.5s4.5,0,4.5-4.5s0-4.5-4.5-4.5S78.3,52.2,78.3,52.2z
		 M141.4,25.2c0,0,0,4.5,4.5,4.5c0,0,4.5,0,4.5-4.5c0,0,0-4.5-4.5-4.5C141.3,20.7,136.8,25.2,141.4,25.2z M154.9,43.2
		c0,4.5,4.5,4.5,4.5,4.5c4.5,0,4.5,0,4.5-4.5s-4.5-4.5-4.5-4.5C154.9,38.7,154.9,38.7,154.9,43.2z M172.9,29.7c0,4.5,0,4.5,4.5,4.5
		c0,0,4.5,0,4.5-4.5s0-4.5-4.5-4.5S172.9,29.7,172.9,29.7z M195.4,43.2c-4.5,4.5,0,9,0,9S199.9,52.2,195.4,43.2
		C199.9,43.2,195.4,43.2,195.4,43.2C190.9,43.2,190.9,43.2,195.4,43.2z M226.9,29.7c0,4.5,0,4.5,0,4.5S231.4,34.2,226.9,29.7
		C231.4,29.7,231.4,29.7,226.9,29.7L226.9,29.7z M226.9,56.7c0,4.5,0,4.5,4.5,4.5c0,0,4.5,0,4.5-4.5s0-4.5-4.5-4.5L226.9,56.7z
		 M208.9,65.7c-4.5,4.5,0,9,0,9S213.4,70.2,208.9,65.7C213.4,65.7,213.4,65.7,208.9,65.7C208.9,65.7,204.4,65.7,208.9,65.7z"/>
	
		<linearGradient id="SVGID_1_" gradientUnits="userSpaceOnUse" x1="249.7688" y1="6.7569" x2="585.9031" y2="91.7123" gradientTransform="matrix(-1 0 0 1 633.6924 2)">
		<stop  offset="0" style="stop-color:#433F00"/>
		<stop  offset="1" style="stop-color:#3C3900"/>
	</linearGradient>
	<path class="st4" d="M398,74.7c0,0-31.5-13.5-72,13.5c-27,13.5-18,4.5-18,4.5s31.5-27,63-31.5C407,61.2,398,74.7,398,74.7z
		 M334.9,34.2c0,0-13.5-4.5-18,0c-9,4.5-13.5,9-18,13.5c-27,31.5-40.5,63-36,63c4.5,4.5,18-31.5,40.5-49.5
		C312.4,56.7,321.4,38.7,334.9,34.2z M258.4,16.2c0,0-13.5-9-22.5-4.5s-40.5,22.5-49.5,54c-9,36-13.5,54-13.5,58.5
		c4.5,9,9-4.5,13.5-36C195.4,61.2,226.9,20.7,258.4,16.2z M127.9,61.2c-4.5,31.5-9,49.5-9,54s4.5,0,9-9c0-13.5,13.5-67.5,18-85.5
		c9-18,27-18,27-18C132.3-1.8,132.3,29.7,127.9,61.2z M60.3,97.2c0,0,0-22.5,9-49.5s18-36,18-36s-13.5,4.5-18,9
		C69.3,25.2,46.8,97.2,60.3,97.2z"/>
	<g>
		<g>
			<g>
				
					<ellipse transform="matrix(1 -1.063815e-03 1.063815e-03 1 -0.147 0.2923)" class="st0" cx="274.7" cy="138.3" rx="13.5" ry="13.5"/>
			</g>
		</g>
	</g>
	<ellipse class="st3" cx="262.9" cy="79.2" rx="4.5" ry="9"/>
	<ellipse class="st3" cx="294.4" cy="110.7" rx="9" ry="4.5"/>
	<ellipse class="st3" cx="316.9" cy="142.2" rx="4.5" ry="4.5"/>
</g>
</svg>
