<?xml version="1.0" encoding="utf-8"?>
<!-- Generator: Adobe Illustrator 20.1.0, SVG Export Plug-In . SVG Version: 6.00 Build 0)  -->
<svg version="1.1" id="Layer_1" xmlns="http://www.w3.org/2000/svg" xmlns:xlink="http://www.w3.org/1999/xlink" x="0px" y="0px"
	 viewBox="0 0 455 220" style="enable-background:new 0 0 455 220;" xml:space="preserve">
<style type="text/css">
	.st0{fill:#85B2B7;}
	.st1{fill:#8AB8BD;}
	.st2{fill:#91C1C6;}
	.st3{fill:#2E3F4A;}
	.st4{fill:#5F7D90;}
</style>
<g>
	<g>
		<g>
			<path class="st0" d="M69.7,126.6l-6.2-8.6c0,0-58.5-18.5-63-10.5c-4.4,7.9,10.6,15,12.3,21.2c3.2,11.8,3.2,17,13.2,25.6
				c1.8,1.6,7,4.3,10,1.4L69.7,126.6z"/>
		</g>
		<g>
			<path class="st1" d="M69,125.9l7.6,7.4c0,0,9.4,60.7,0.8,63.9c-8.5,3.1-13.2-12.8-19.1-15.4c-11.2-4.9-16.3-5.8-23.3-17
				c-1.2-1.8-3.1-7.4,0.2-10L69,125.9z"/>
		</g>
	</g>
	<g>
		<path class="st1" d="M436.5,141.2c-5.2,4.4-7,10.9-32,22.1c-38.8,7.9-64.5,1.3-103.6,1.1c-63.5-0.3-109.1-38.9-145.1-39.8
			c-33.9-0.8-76.6,9.5-76.6,9.5c-15.9,5.6-22.3-4.1-16.7-15.8c0,0,48.2-64.8,158.9-87.7c52-10.8,166.9-11.1,211.9,0
			C469,39.4,454.9,125.7,436.5,141.2z"/>
	</g>
	<g>
		<path class="st2" d="M250.1,150c-2.6,2.8-8.7,6-12.6,10.5c-5.2,6.2-10.9,14.1-17,12.9c-14.3-2.8-20.2-16.3-13.5-30.1
			c5-10.3,40.9-9.8,40.9-9.8C252.4,134.2,260,142.4,250.1,150z"/>
	</g>
	<g>
		<g>
			<path class="st3" d="M280,106.6c2.1,0,3.8,1.7,3.8,3.8c0,2.1-1.7,3.8-3.8,3.8s-3.8-1.7-3.8-3.8S277.9,106.5,280,106.6z"/>
		</g>
	</g>
	<path class="st4" d="M309.1,155.9c0.1,0.8,1.2,0.5,1.2,0.5c1.2-0.1,2.6-0.3,3.8-0.3c3.2,0.2,6.5,0.5,9.7,0.8
		c12.7,1.4,24.7,2.7,34.8,3.8c20.5,2.4,34.1,3.9,34.1,3.9c0.2,0,1.5,0.3,1.7,0.3c1.2-0.1,2.3-0.3,2.3-0.3s-0.8-0.6-1.1-0.8
		c-0.9-0.4-2.6-0.7-3.2-0.9c-2.4-0.3-15.3-1.8-33.6-3.9c-10.3-1-22.1-2.4-35-3.6c-3.1-0.3-6.3-0.6-9.8-0.8c-1.3,0-2.8,0.2-4.2,0.5
		C309.8,155.1,308.9,155.4,309.1,155.9z"/>
</g>
</svg>
