<?xml version="1.0" encoding="utf-8"?>
<!-- Generator: Adobe Illustrator 20.1.0, SVG Export Plug-In . SVG Version: 6.00 Build 0)  -->
<svg version="1.1" id="Layer_1" xmlns="http://www.w3.org/2000/svg" xmlns:xlink="http://www.w3.org/1999/xlink" x="0px" y="0px"
	 viewBox="0 0 1280 155" style="enable-background:new 0 0 1280 155;" xml:space="preserve">
<style type="text/css">
	.st0{fill:#80C6FF;}
	.st1{fill:url(#SVGID_1_);}
	.st2{fill:#26EAEF;}
	.st3{fill:#231F20;}
	.st4{opacity:0.6;fill:#26EAEF;enable-background:new    ;}
</style>
<rect x="-36" y="-8.5" class="st0" width="1338" height="163.5"/>
<radialGradient id="SVGID_1_" cx="811.5" cy="735.5" r="69.5" gradientTransform="matrix(1 0 0 1 0 -644)" gradientUnits="userSpaceOnUse">
	<stop  offset="0" style="stop-color:#FFFFFF"/>
	<stop  offset="0.7196" style="stop-color:#FFFF00"/>
	<stop  offset="1" style="stop-color:#80C6FF"/>
</radialGradient>
<circle class="st1" cx="811.5" cy="91.5" r="69.5"/>
<rect x="-24.6" y="90.6" class="st2" width="1326.6" height="75.5"/>
<g id="Layer_2">
</g>
<g>
	<path class="st3" d="M372.2,94.1C373.9,91,381,79,384.6,67L370,67.2l-2.5-5.3v-5.5h-12.4l-1.4-5.8l0.5-4.4L355,46l0.1-1.8l-3-0.3
		l0.8-5.8l1.8-0.2l-2.4-3.3l-3.4-0.1v-4.6l0.3-0.4l0.4-0.8l-0.2-1l-0.4-0.2l0.5-0.2l3.9-0.2c0.1,0,0.1-0.1,0.1-0.1h0.1h0.1h0.1
		c0.1,0,0.1-0.1,0.2-0.1l0.1-0.1c0.1-0.1,0.1,0,0.1-0.1s0.1-0.1,0.1-0.2v-0.1v-0.1v-0.1v-0.1V26v-0.1v-0.1v-0.1v-0.1v-0.1h-0.1v-0.1
		v0.2l-0.1-0.1H354c-0.1,0-0.2,0-0.3,0l-10.5-0.1c-0.1,0-0.2,0-0.2,0h-0.1h-0.1h-0.1l0,0h-0.2h-0.2c-0.1,0-0.2,0-0.2,0H342v0.1h-0.1
		h-0.1v0.1h-0.1l0,0h-0.1l0,0h-0.1v0.1l-0.1,0.1v0.1V26v0.1l0.1,0.1v0.1v0.1c0,0.1,0,0.1,0.1,0.1s0.1,0.1,0.1,0.2s0,0.1,0.1,0.1
		c0.1,0.1,0,0.1,0.1,0.1h0.2c0.1,0,0.3,0,0.4,0l4.5,0.2l-0.3,0.7l-0.2,1.5l1,1l0.3,4.2l-17.1-0.3l-1.4,0.1l-0.7-6.8l2.1-1l0.9,1.8
		h1.2l0.1-1.6l1.4-0.9l-1-0.3v-1h-0.7l0.1-0.4l1.1-0.1l0.1-0.8l-0.3-0.3c-0.1,0-0.3-0.1-0.4-0.1s-0.3-0.1-0.3-0.1
		c-0.2-0.1-1-0.1-1.3-0.1c-0.4,0-0.6,0.1-0.9,0.3v0.9l-1.8,0.2l-0.2,1.1l-0.8-0.1l-0.2-2.7l10-0.2v-0.6l-10.1,0.1l-1.4-12.7l0.7-0.5
		l-0.2-1.7l-0.2,1.1l-0.4,0.1L326,6.6l-0.5,1.2l-1.1,0.1v0.7h-3.3l-0.3-2.2l-0.2,2.5l4.1,0.2l0.2,2.3l-5.3-1.1l-0.1,0.4l5.6,1.5
		l0.1,2.3l-3.5,0.2l-0.1,0.5l2.4,0.1l1.6,1.3l0.2,6.5l-1.4,12l-6.9,1.5l-1.4,1.6l-20,1.4c-0.1,0-0.4,0.2-0.7,0.2
		c-0.2,0-0.7,0.1-0.7,0.2c0,0.1-0.2,0.1-0.3,0.1c-0.2,0-0.4,0.2-0.6,0.2c-0.3,0-0.7,0-0.9,0.2c0,0-1.4,0-1.5,0c-0.6,0-1.1,0-1.7,0
		c-0.2,0-0.1,0.5-0.1,0.6l-0.9,3.1l-1.1-0.4l-0.7,0.1c0-0.1-0.2-0.9-0.2-0.9c-0.1-0.1-0.3-0.7-0.3-0.8c0-0.2-0.2-0.5-0.2-0.7
		S286,41,286,40.8c0-0.4-0.3-0.5-0.3-0.9c0-0.2-0.1-0.5-0.2-0.5c-0.2,0-0.4,0-0.6,0l-20.8,0.7c-0.1,0-0.2,0-0.3,0h-0.1h-0.1h-0.1
		h-0.1c-0.1,0-0.2,0-0.3,0c-0.1,0-0.2,0-0.2,0.1s-0.1,0.1-0.2,0.2v0.1l0,0v0.1l-0.1,0.3l-1.7,8.4l-11.3,0.4l-0.2,4.8h-0.5v1.1
		l-3.6-0.1l-2.9,6.5l-39.2,0.9c-0.1,0,0.9-0.9,0.9-1.5c0-0.9-0.5-0.9-1.3-0.9c-1.7,0-3.2,0.3-4.6,1l-4.7-19.1l-1.4,0.1l0.1-5
		l-2.3-0.1v0.7c-0.1,0-0.3-0.5-0.4-0.5c-0.1,0-0.6,0-0.7,0c-0.5,0-0.7,0.3-1,0.6c-0.1,0.1-0.1,0.7-0.1,0.9s0.2,0.6,0.2,0.6v-0.1
		c0.1,0.1,0.1,0.1,0.1,0.2c0,0.3,0.2,0.4,0.5,0.6l-0.1,1.7l-5.9,0.1l0.1,0.5l4.2,1.6l0.3,8.9l-2.2,3.6v0.4h0.3v1.7
		c-0.1,0-0.2,0-0.3,0h-0.2h-0.1h-0.1h-0.1h-0.1c-0.1,0-0.1,0-0.1,0.1c-0.1,0.1-0.2,0.1-0.3,0.1h-0.1h-0.1v0.1h-0.1h-0.1h-0.1h-0.1
		h-0.1v0.1h-0.1H183c0,0-0.1,0.1-0.2,0.1c-0.1,0-0.3,0.1-0.4,0.2c-0.4-0.2-0.9,0-1.2,0.1c-0.1,0.1-0.1,0.2-0.1,0.3s0.1,0.4-0.1,0.4
		c-0.3,0-0.5,0.1-0.7,0.1l-0.3,0.1l-0.1,0.2c-0.2,0.1-0.1,1-0.1,1.3h-4.1l-6.6-0.6l-1-4.6l-4-3.1l-2.7-12.1h-11.5v0.5l4.6,1.9
		l0.3,15.3l-0.9-0.5L153,59l-1.7,0.5V57l1.7-0.1v-1.1l-2.7-0.9h-1.1l-2.7,0.8v1.5h1.2v0.2l-2.1,0.1l0.1,3.1l-7.9-0.1l-1.3-16.1
		l-0.4,0.1v1.3l-1.1,1.7c-0.5,0.5-0.7,1.4-0.7,2.3c0,0.7-0.6,1.1-1,1.5c-0.2,0.2-0.2,0.7-0.4,0.9c-0.1,0.1-0.9,0.8-0.7,0.8h0.3
		c0.5-0.5,2.7-1.2,2.7-1.9v-0.3c0.1-0.1,1.3-1,1.4-1c-0.4,0,0.7,10.2,0.5,10.4l-0.4,0.6h-0.2h-0.2h-0.4h-0.4h-0.6
		c-0.2,0-0.6,0-0.8,0c-0.4,0-0.8,0-1.2,0c0-0.8,0-2,0-2.7c0-2,0.6-0.8,1.2-1.4c0.2-0.2-0.2-1.4-0.2-1.4c-0.8-0.4-6.3-0.6-6.3,0.4
		c0,0.6,0,1.1,0.6,1.2c1.7,0.2,1.3,3.4,1.4,3.3c0.2-0.6-1.4,1.4-1.6,1.6c-0.4,0.4,0.2,2.9-0.6,2.9c-1.4,0-2.9,0-4.3,0
		c-1,0-3.9-0.4-3.9,0.6s-0.6,3.7-1,4.5c-0.8,1.8,0.6,3.9-1.2,5.7c-0.6,0-0.9,0-1,0.6c0,0.1,0,0.2,0,0.2l0,0
		c-0.1,0.7-0.2,1.4-0.2,2.1l0,0c-0.2,1.2-0.3,2.4-0.5,3.5V82c0,0.2-0.1,0.4-0.1,0.5l0,0c0,0.1,0,0.2,0,0.3v0.1V83l0,0
		c0,0.3-0.1,0.7-0.1,1l0,0c0,0.1,0,0.2,0,0.2l0,0c0,0.1,0,0.2,0,0.2l0,0c0,0.1,0,0.1,0,0.2l0,0c0,0.1,0,0.1,0,0.2v0.1
		c0,0.1,0,0.1,0,0.2l0,0c0,0.1,0,0.1,0,0.2c0,0,0,0,0,0.1s0,0.1,0,0.2c0,0,0,0,0,0.1v0.1c0,0,0,0,0,0.1V86c0,0,0,0,0,0.1v0.1
		c0,0,0,0,0,0.1v0.1l0,0c0,0.1,0,0.1,0,0.2l0,0v0.1l0,0v0.1l0,0v0.1l0,0V87l0,0v0.1l0,0v0.1l0,0v0.1l0,0v0.1c0,0,0,0,0,0.1v0.1l0,0
		v0.1l0,0v0.1l0,0v0.1l0,0V88l0,0v0.1l0,0c0,0,0,0,0,0.1l0,0c0,0,0,0,0,0.1l0,0c0,0,0,0,0,0.1l0,0c0,0,0,0,0,0.1l0,0c0,0,0,0,0,0.1
		l0,0l0,0l0,0l0,0l0,0l0,0l0,0c0,0,0,0,0.1,0l0,0c0,0,0,0,0.1,0l7.1,5.7c137.1,7.5,225.7,5.4,249.4-0.4l0,0l0,0l0,0l0,0l0,0l0,0
		c0,0,0,0,0-0.1l0,0v-0.1l0,0C372,94.4,372.1,94.3,372.2,94.1L372.2,94.1L372.2,94.1z"/>
	<polygon class="st0" points="139.8,69.6 139.8,72.3 138.2,72.3 138.2,69.6 	"/>
	<polygon class="st0" points="145.2,69.4 143.6,69.4 143.6,72.1 145.2,72.1 	"/>
	<polygon class="st0" points="350.2,39.8 348.6,39.7 348,43.4 349.7,43.5 	"/>
	<polygon class="st0" points="347.7,39.7 346.1,39.6 345.5,43.3 347.2,43.4 	"/>
	<polygon class="st0" points="345.1,39.6 343.5,39.5 342.9,43.2 344.6,43.3 	"/>
	<polygon class="st0" points="342.6,39.5 341,39.4 340.4,43.1 342.1,43.2 	"/>
	<polygon class="st0" points="340.1,39.6 338.5,39.5 337.9,43.2 339.6,43.3 	"/>
	<polygon class="st0" points="337.4,39.5 335.8,39.4 335.2,43.1 336.9,43.2 	"/>
	<polygon class="st0" points="334.9,39.5 333.3,39.4 332.7,43.1 334.4,43.2 	"/>
	<polygon class="st0" points="349.9,53.6 348.1,53.7 348.8,57.8 350.5,57.8 	"/>
	<polygon class="st0" points="347.1,53.6 345.3,53.7 346,57.8 347.7,57.8 	"/>
	<polygon class="st0" points="344.3,53.6 342.5,53.7 343.2,57.8 344.9,57.8 	"/>
	<polygon class="st0" points="341.5,53.7 339.7,53.8 340.4,57.9 342.1,57.9 	"/>
	<polygon class="st0" points="338.8,53.7 337,53.8 337.7,57.9 339.4,57.9 	"/>
	<polygon class="st0" points="336,53.7 334.2,53.8 334.9,57.9 336.6,57.9 	"/>
	<polygon class="st0" points="333.2,53.7 331.4,53.8 332.1,57.9 333.8,57.9 	"/>
	<polygon class="st0" points="328.4,39.7 326,39.7 326,43.3 328.4,43.3 	"/>
	<polygon class="st0" points="317.3,42 315.7,42 315.7,44.8 317.3,44.8 	"/>
	<polygon class="st0" points="324.2,39.8 321.7,39.8 321.7,44.9 324.3,44.9 324.3,39.8 	"/>
	<polygon class="st0" points="310.5,42.5 309.1,42.5 309.1,45.5 310.5,45.5 	"/>
	<polygon class="st0" points="320.6,54.3 317.2,54.3 317.2,58.7 320.6,58.7 	"/>
	<polygon class="st0" points="316,54.6 312.9,54.6 312.9,58.9 316,58.9 	"/>
	<polygon class="st0" points="311.6,55 308.6,55 308.6,59.3 311.6,59.3 	"/>
	<polygon class="st0" points="307.3,55.3 304.3,55.3 304.3,59.7 307.3,59.7 	"/>
	<polygon class="st0" points="303.3,55.6 300.2,55.6 300.2,59.9 303.3,59.9 	"/>
	<polygon class="st0" points="299.1,56 296,56 296,60.2 299.1,60.2 	"/>
	<polygon class="st0" points="295.1,56.2 292,56.2 292,60.6 295.1,60.6 	"/>
	<polygon class="st0" points="290.9,56.6 287.8,56.6 287.8,60.9 290.9,60.9 	"/>
	<polygon class="st0" points="278.9,57.2 275.9,57.2 275.9,61.2 278.9,61.2 	"/>
	<polygon class="st0" points="274.7,57.3 272,57.3 272,61.3 274.7,61.3 	"/>
	<polygon class="st0" points="266.2,69.6 264.5,69.6 264.5,72.5 266.2,72.5 	"/>
	<polygon class="st0" points="250.5,70.1 248.9,70.1 248.9,72.8 250.5,72.8 	"/>
	<polygon class="st0" points="242.7,70.1 241.1,70.1 241.1,72.8 242.7,72.8 	"/>
	<polygon class="st0" points="237,70.3 235.4,70.3 235.4,73 237,73 	"/>
	<polygon class="st0" points="229.7,70.5 228.1,70.5 228.1,73.2 229.7,73.2 	"/>
	<polygon class="st0" points="222.4,70.7 220.8,70.7 220.8,73.4 222.4,73.4 	"/>
	<polygon class="st0" points="215.1,70.9 213.5,70.9 213.5,73.6 215.1,73.6 	"/>
	<polygon class="st0" points="207.9,71.1 206.3,71.1 206.3,73.8 207.9,73.8 	"/>
	<polygon class="st0" points="200.6,71.3 199,71.3 199,74 200.6,74 	"/>
	<polygon class="st0" points="193.3,71.5 191.7,71.5 191.7,74.2 193.3,74.2 	"/>
	<polygon class="st0" points="186.1,71.7 184.5,71.7 184.5,74.4 186.1,74.4 	"/>
	<polygon class="st0" points="178.8,71.9 177.2,71.9 177.2,74.6 178.8,74.6 	"/>
	<polygon class="st0" points="150.8,69.8 149.2,69.8 149.2,72.5 150.8,72.5 	"/>
</g>
<rect x="-24.6" y="90.6" class="st4" width="1326.6" height="75.5"/>
</svg>
