<?xml version="1.0" encoding="utf-8"?>
<!-- Generator: Adobe Illustrator 20.1.0, SVG Export Plug-In . SVG Version: 6.00 Build 0)  -->
<svg version="1.1" id="Layer_1" xmlns="http://www.w3.org/2000/svg" xmlns:xlink="http://www.w3.org/1999/xlink" x="0px" y="0px"
	 viewBox="0 0 1310.6 220" style="enable-background:new 0 0 1310.6 220;" xml:space="preserve">
<style type="text/css">
	.st0{fill:#002E6E;}
	.st1{fill:#BED630;}
	.st2{fill:#000002;}
</style>
<g>
	<path class="st0" d="M229.1,155.9c15.1-7.6,22.7-15.2,15.1-15.2c0-7.6,0-7.6,7.6-15.2c0-7.6,7.6-7.6,7.6-7.6c7.6,0,7.6,0,0-7.6
		c-22.7-22.8-60.7,7.6-83.5,7.6c-15.2,0-30.4,0-45.6,7.6c-7.6,7.6-15.2,15.2-30.4,15.2c-7.6,0-15.2,0-22.8,7.6
		c-7.6,0-7.6,7.6-7.6,15.2c-7.6,7.6-22.8,7.6-30.4,7.6c-7.6,7.6-22.8,15.2-30.4,22.8c-15.2,22.8,15.2,15.2,30.4,15.2
		s30.4-7.6,53.2-7.6s30.4-7.6,53.2-7.6s30.4,0,45.6-15.2S213.9,155.9,229.1,155.9"/>
	<path class="st1" d="M654.3,95.2c-38,45.5,91.1,60.7,197.4,60.7c83.5-7.6,30.4,7.6-7.6,7.6c-15.2,0-235.4,0-341.7-30.4
		c-106.3-22.8-235.4-38-334.1-7.6s-83.6,68.4-30.4,60.8c53.1-15.2,22.8-68.3,455.6,7.6c425.3,76,432.9-91.1,288.6-83.5
		c-60.7,0-144.3,0-106.3-15.2s326.5-15.2,364.5-7.6s60.7,0,45.5-7.6c-15.2-7.6-30.4-7.6-30.4-7.6s30.4,0,45.6-15.2
		c15.2-22.8,15.2-45.6-68.3-38c-30.4,7.6-106.3,15.2-106.3,15.2C813.8,57.2,692.3,34.4,654.3,95.2z"/>
	<circle class="st2" cx="1155.5" cy="57.2" r="7.6"/>
	<path class="st0" d="M1064.3,34.4c-45.5,7.6-129.1,15.2-205,15.2c-83.5,0-91.1,0-136.7,15.2s-45.6,38-45.6,22.8
		c0-22.8,15.2-38,30.4-38c15.2,0,38,0,53.2-22.8c22.7-22.8,53.1-7.6,75.9,0c30.4,15.2,38,0,60.8-15.2c30.4-15.1,60.7,15.2,83.5,15.2
		c22.8,0,22.9-22.8,45.6-15.2c22.7,7.6,30.3,7.6,60.7,0c22.8-7.6,38,7.6,38,7.6S1102.3,26.8,1064.3,34.4z"/>
	<circle class="st0" cx="722.7" cy="95.2" r="7.6"/>
	<circle class="st0" cx="753" cy="80" r="0"/>
	<circle class="st0" cx="692.3" cy="102.8" r="7.6"/>
	<circle class="st0" cx="745.4" cy="125.6" r="0"/>
	<circle class="st0" cx="715.1" cy="125.6" r="7.6"/>
	<circle class="st0" cx="806.2" cy="72.4" r="7.6"/>
	<circle class="st0" cx="669.5" cy="110.4" r="7.6"/>
	<circle class="st0" cx="1109.9" cy="49.6" r="7.6"/>
	<circle class="st0" cx="1132.7" cy="34.4" r="7.6"/>
	<circle class="st0" cx="1056.8" cy="64.8" r="7.6"/>
</g>
</svg>
